<svg xmlns="http://www.w3.org/2000/svg" width="1920" height="346.002" viewBox="0 0 1920 346.002">
  <path id="Subtraction_1" data-name="Subtraction 1" d="M-6.491,1385l-34.565,0,2.709-.2.08-.006c4.266-.309,8.676-.628,12.92-.874-.041-.175-.1-.343-.153-.505l0-.014c-.034-.1-.07-.207-.1-.312-4.99.04-10.324.06-16.306.06-6.688,0-13.328-.024-19.749-.047h-.35c-6.45-.023-13.119-.047-19.674-.047-12.671,0-29.37.077-46.173.68-.007.171-.01.344-.014.512v.013c0,.156-.007.349-.015.534,5.114.03,10.439.07,14.718.1l.456,0c4.534.034,9.223.069,13.839.1h-314.4c1.457-.187,2.886-.482,4.4-.794h.007c1.083-.223,2.2-.454,3.435-.67-1.569-.02-3.015-.089-4.413-.157-1.429-.068-2.779-.133-4.054-.133-4.042,0-6.013.754-7.408,1.491.561.1,1.121.194,1.665.264H-437.82c.748-.12,1.433-.272,1.825-.375a.155.155,0,0,0,.129-.182.643.643,0,0,0-.6-.454h-.034c-.513.035-1.18.107-1.952.191h-.012c-1.417.155-3.181.347-4.543.347a9.043,9.043,0,0,1-1.154-.063,134.029,134.029,0,0,0-17.763-.977c-2.26,0-4.559.026-6.782.051h-.073c-2.155.025-4.6.053-7.035.053-.761,0-1.461,0-2.139-.008h-.224a37.6,37.6,0,0,0-5.653.477c-.13.021-.2.058-.226.115-.035.088.058.21.149.329s.175.23.153.316a.142.142,0,0,1-.09.091c.375.027.787.057,1.259.087h-81.2c.935-.271,1.929-.617,3.037-1.008-15.216-.095-30.228-.2-46.868-.321.612.249,1.105.495,1.541.712a12.328,12.328,0,0,0,1.371.617h-82.559a18.1,18.1,0,0,0,3.527-.432,21.615,21.615,0,0,1,6.089-.89,53.193,53.193,0,0,1,5.808.449l.061.007.758.084a4.748,4.748,0,0,0,.512.025,14.63,14.63,0,0,0,3.793-.643c.059-.02.09-.046.1-.08.014-.1-.19-.24-.387-.378s-.37-.26-.383-.353a.065.065,0,0,1,.013-.051c-9.161.562-17.709,1.1-26.13,1.645a.747.747,0,0,1,.445.328.928.928,0,0,0,.316.29H-919.758l8.86-.877,6.068-.6c-1.238-.065-2.418-.14-3.559-.212-2.413-.153-4.692-.3-6.7-.3a21.477,21.477,0,0,0-4.669.411,7.588,7.588,0,0,0-3.395,1.576h-55.555c-.822-1.593-4.719-1.831-6.968-1.831-1.1,0-2.27.056-3.376.162-6.025.584-10.964.662-15,.662-1.954,0-3.887-.021-5.934-.043h-.01c-1.7-.018-3.635-.039-5.61-.046h-.024a10.449,10.449,0,0,0-2.863.481c-.121.04-.188.087-.206.143s.035.147.09.221.128.172.076.25h-27.27a20.132,20.132,0,0,0,4.772-1.606l-1.193.048-.11,0a88.729,88.729,0,0,0-11.847.992,11.017,11.017,0,0,1-1.925.158,21,21,0,0,1-2.3-.151l-.258-.028a15.155,15.155,0,0,0-1.553-.123c-.818,0-1.224.211-1.357.706h-10.3a.167.167,0,0,0-.171-.176c-1.052-.1-4.1-.341-5.242-.341h-.1a.36.36,0,0,0-.278.13.5.5,0,0,0-.1.386H-1101.3a26.3,26.3,0,0,0-4.5-.486,17.175,17.175,0,0,0-3.937.486h-19.514a36.995,36.995,0,0,0,4.916-.862l-6.6-.046-.954-.006-6.68-.047A46.715,46.715,0,0,0-1133,1385h-37.716a13.766,13.766,0,0,0,3.692-1.351l-2.291.151c-3.72.245-7.076.467-10.462.693.85.207,1.68.378,2.467.507h-7.3c-.018-.116-.057-.222-.222-.222h-.023c-.382.022-.869.056-1.432.1l-.107.007c-.542.039-1.125.08-1.717.118h-5.913a39.42,39.42,0,0,0-9.255-.995c-1.677,0-3.324.069-5.068.142l-.192.008h-.017c-1.6.067-3.584.15-5.654.15-.8,0-1.564-.012-2.336-.036-.01.18-.034.365-.055.527v.008c-.009.065-.017.13-.025.195h-6.373a41.864,41.864,0,0,0-8.4-1.005,25.136,25.136,0,0,0-7.079,1.005h-19.055a53.778,53.778,0,0,0-10.855-1.158A49.761,49.761,0,0,0-1278.98,1385h-24.806a1.189,1.189,0,0,1-.2-.616c-.057-.493-.1-.881-2.013-.881-.349,0-.76.013-1.222.04a14.544,14.544,0,0,0-4.271,1.447l-.022.01h-17.821a5.11,5.11,0,0,0,1.7-.867l-14.472-.115-22.259-.177c.389.213.791.43,1.18.64l.085.046.872.473h-13.232l1.231-.1h.016l1-.081c.071-.005.111-.04.109-.094a.283.283,0,0,0-.279-.218l-.7-.013-.1,0c-.94-.018-2.226-.043-3.259-.043-.624,0-1.1.009-1.4.027a.374.374,0,0,0-.3.166.413.413,0,0,0-.048.358h-13.6l2.535-.183.365-.026c-.824-.039-1.816-.112-2.866-.19-1.951-.144-4.158-.308-6.053-.308-2.245,0-3.64.231-4.265.706h-10.1l.084-.017.579-.1c-.793-.275-1.646-.562-2.607-.876-.488.211-1.114.446-1.719.674l-.006,0-.045.017c-.265.1-.538.2-.8.3H-1433.2a.245.245,0,0,0-.181-.083c-1.348-.119-4.841-.217-6.325-.24h-.006a.448.448,0,0,0-.425.323h-42.69c-.453-.01-.91-.018-1.359-.023-.619-.008-1.29-.012-2.05-.012-1.432,0-2.958.015-4.3.027l-.846.008h-10.773c-1.116-.023-3.242-.06-4.946-.06-.361,0-.69,0-.977.005a.39.39,0,0,0-.2.055h-176.492v-.657c8.779.028,17.333.048,26.151.058h.086c2.105,0,4.218-.069,6.26-.136h.008l.08,0h.013c2.006-.065,4.081-.133,6.125-.133.291,0,.594,0,.9,0,3.6.037,7.237.133,10.758.226h.028c4.489.118,9.131.241,13.7.241.458,0,.912,0,1.352,0,10.236-.056,20.6-.226,30.627-.39h.035l.151,0c6-.1,12.2-.2,18.3-.275.623-.008,1.27-.012,1.978-.012,1.74,0,3.51.025,5.223.05h.142c1.766.026,3.593.053,5.385.053.5,0,.974,0,1.413-.006,16.366-.151,33.035-.353,49.155-.548h.024l.268,0c16.585-.2,33.736-.408,50.555-.56,16.533-.148,33.427-.179,49.764-.209h.029l10.092-.019,2.871,0c3.188,0,6.394.01,9.494.019h.4c2.912.009,6.536.021,9.973.021,3.683,0,6.9-.013,9.848-.04,8.9-.08,17.9-.208,26.6-.332h.053c12.372-.176,25.164-.358,37.753-.4,15.247-.059,31.587-.086,51.425-.086,13.525,0,27.257.013,40.538.025h.172l9.2.008c2.739,0,5.631,0,8.6,0,12.483,0,24.93-.02,36.966-.04h1.265c11.977-.019,24.363-.039,36.5-.039,11.273,0,21.182.017,30.295.051,3.055.011,6.359.016,10.1.016,3.688,0,7.336-.005,11.059-.01h.3c3.478,0,7.074-.009,10.594-.009,8.742,0,19.013.024,28.909.2,3.4.061,8.057.144,12.539.144,8.158,0,13.1-.275,15.112-.841.541-.154.924-.26,1.271-.355-.055-.27-.118-.55-.173-.8l0-.01c-.06-.27-.123-.549-.178-.824l20.018.127c-.431.031-.854.064-1.284.1l-.619.047c4.169.144,8.438.508,12.566.859h.01c5.235.446,10.647.907,15.787.907h.507c4.284-.025,8.756-.041,13.081-.057h.1c17.32-.062,35.23-.127,51.04-.765,2.58-.1,5.552-.251,8.426-.394h.027c3.179-.158,6.466-.321,9.737-.455l-.73.016h-.084c-1.214.026-2.47.054-3.7.062-3.541.026-6.827.038-10.046.038-7.766,0-14.82-.076-21.565-.232-.912-.021-1.824-.047-2.706-.072h-.04c-2-.058-3.882-.112-5.805-.112a59.613,59.613,0,0,0-8.778.565,3.188,3.188,0,0,1-.449.027,22.044,22.044,0,0,1-3.053-.364l-.075-.012-.4-.066c31.078-.7,58.886-1.045,85.013-1.045,12.324,0,24.51.078,36.22.231-.437.128-1.126.323-1.734.5-.479.136-.932.264-1.2.343a4.7,4.7,0,0,1-.559.129.7.7,0,0,0-.389.146.1.1,0,0,0-.044.082c.006.082.147.164.284.244a.766.766,0,0,1,.253.188c16.583.087,31.926.205,46.905.362.268,0,.533,0,.788,0a29.664,29.664,0,0,0,6.285-.507,6.471,6.471,0,0,0,3.645-1.874c7.952,2.039,11.722,2.48,21.231,2.48h.85c1.487,0,3.232-.105,5.079-.214,2.182-.128,4.434-.261,6.652-.261.373,0,.736,0,1.081.011,4.432.095,9.559.426,14.516.747h.02c1.9.123,3.863.25,5.716.358-.975-.319-2-.647-3-.963l-.032-.01c-.806-.256-1.592-.506-2.346-.751,2.761-.371,5.443-.467,8.036-.56,4.393-.157,8.542-.306,12.151-1.8-.07.131-.131.262-.191.388-.343.732-.665,1.42-2.513,1.966a37.472,37.472,0,0,1-5.627.923c-.978.115-1.9.222-2.755.35,4.264.028,8.59.06,12.809.091l1.507.011c7.823.058,15.912.118,23.957.16-.043-.011-.066-.028-.073-.051-.015-.053.063-.132.138-.209s.16-.164.139-.218c-.014-.036-.071-.057-.175-.063-2.943-.164-6.266-.266-9.479-.366h-.006l-.18-.005c-.962-.03-1.871-.058-2.765-.088a41.447,41.447,0,0,1,9.963-1.112c3.417,0,6.2.373,7.631,1.023,2.539,1.147,3.4,1.364,5.395,1.364.486,0,1.05-.013,1.7-.028h.03l.357-.008c.624-.015,1.248-.021,1.908-.021,1.154,0,2.165.021,3.186.045l.239.005h.022c.864.02,1.679.039,2.445.039a16.469,16.469,0,0,0,8.539-1.929,13.34,13.34,0,0,1,3.542-.4c1.972-.085,4.238-.1,5.791-.1,1,0,2.024.008,2.876.022,3.2.055,7.672.372,10.777,1.57-1.914-.067-3.364-.1-4.7-.1a56.31,56.31,0,0,0-10.608.939c34.091.26,67.935.393,100.592.393,37.98,0,75.649-.18,111.96-.534.053-.273.1-.549.14-.792-3.7-.1-7.455-.19-11.087-.281h-.048q-4.561-.114-9.133-.23a7.4,7.4,0,0,0,.971-.468,7.049,7.049,0,0,1,1.087-.511,10.425,10.425,0,0,1,3.836-.888,34.485,34.485,0,0,1,4.068.415l.947.125a27.525,27.525,0,0,0,3.364.249c1.576,0,2.5-.232,2.744-.689a.837.837,0,0,0-.158-.865c4.9,1.433,9.714,1.466,14.812,1.5a82.534,82.534,0,0,1,11.245.6c-2.115.212-4.295.429-6.612.66l-8.5.846c3.774.024,7.591.051,11.342.078l3.315.023c7.057.05,14.355.1,21.625.145-.056-.02-.085-.045-.09-.076-.012-.068.092-.155.193-.239s.21-.177.191-.245c-.014-.048-.088-.081-.227-.1-1.946-.281-4.2-.519-6.389-.75l-.028,0c-1.623-.172-3.3-.349-4.838-.542,3.445-.074,6.891-.163,10.224-.249,7.871-.2,16.01-.414,24-.414,7.621,0,14.413.192,20.764.588l-1.549.012-1.43.009c-5.495.035-11.177.071-16.613.461-2,.144-3.849.169-5.632.193h-.006c-3.905.054-7.277.1-10.649,1.375,19.988-.087,40.326-.173,59.994-.255,18.39-.077,39.233-.165,59.446-.253a15.263,15.263,0,0,0,2.175-.219c.233-.038.371-.095.424-.173a.17.17,0,0,0,.016-.142c-.009-.031.02-.077.05-.126.041-.065.086-.138.058-.2s-.1-.08-.233-.093c-1.879-.181-3.983-.327-6.017-.469l-.05,0c-1.358-.095-2.762-.192-4.078-.3a171.168,171.168,0,0,1,17.236-.836c.441,0,.89,0,1.334,0h.44a124.445,124.445,0,0,0,13.432-.946c1.564-.168,3.177-.342,4.772-.49a27.4,27.4,0,0,0-7.78-1.2c-9.955-.06-19.709-.09-29.818-.09-2.309,0-4.783,0-7.353.005-6.625.011-13.318.062-19.79.111h-.25c-2.5.019-5.08.039-7.625.056-.99.007-2,.021-2.977.035h-.109c-1.479.02-3.006.042-4.5.042-2.876,0-5.173-.082-7.227-.259-4.74-.407-8.288-.581-11.865-.581-2.41,0-4.975.081-7.844.248q-1.567.091-3.09.183h-.006c-5.489.328-10.674.639-15.781.639a92.194,92.194,0,0,1-17.583-1.557,3.879,3.879,0,0,0-.719-.071,3.605,3.605,0,0,0-2.18.836l-.063.044a3.22,3.22,0,0,1-1.929.792,5.205,5.205,0,0,1-2.661-1.008,17.954,17.954,0,0,1-3.33.357,9.962,9.962,0,0,1-5.052-1.357,9.828,9.828,0,0,0-1.2.318c-2.333,1.028-3.54,1.458-4.97,1.458a23.824,23.824,0,0,1-5.588-1.109,7.522,7.522,0,0,0-1.707-.134c-1.425,0-3.28.14-4.508.232l-.022,0-.571.042a.732.732,0,0,1-.036.708c-.484.717-2.494.753-4.822.8l-.748.015c-3.164.072-5.029.092-8.015.109-.785,0-1.364.006-1.877.006a56.814,56.814,0,0,1-8.083-.405,13.448,13.448,0,0,1-5.849-2.062,67.668,67.668,0,0,1-16.328,2.272,66.46,66.46,0,0,1-8.237-.549,41.241,41.241,0,0,0-5.1-.364,16.7,16.7,0,0,0-5.831.882,9.093,9.093,0,0,1-2.391.221,13.546,13.546,0,0,1-1.737-.094,74.6,74.6,0,0,0-10.387-.662c-3.357,0-6.907.161-11.512.522-2.219.174-4.624.274-6.6.274a22.829,22.829,0,0,1-5.354-.438,16.22,16.22,0,0,0-4.335-.565,31.7,31.7,0,0,0-3.642.263l-.024,0c-.433.049-.842.1-1.239.132l-1.041.094-.245.022c-4.026.364-6.932.627-9.532.627a33.963,33.963,0,0,1-10.251-1.627c-5.031.9-10.218,1.807-15.234,2.689l-.016,0-.639.112a35.036,35.036,0,0,0-11.283-1.458c-2.012,0-4.106.077-6.132.151h-.025c-1.592.059-3.238.12-4.869.145-1.022.015-2.065.023-3.1.023-4.658,0-8.755-.153-13.093-.315l-.173-.006c-1.559-.058-3.171-.118-4.842-.171-3.154-.1-5.618-.145-7.99-.145-2.24,0-4.455.039-6.974.123l-2.122.073h-.032c-3.546.124-6.9.24-10.2.241a73.592,73.592,0,0,1-16.958-1.665,8.969,8.969,0,0,0-2.012-.242,4.4,4.4,0,0,0-3.09.98,1.167,1.167,0,0,0-.371.845c-4.85,0-9.646-.045-13.87-.13-1.565-.033-3.935-.529-4.158-.87a2.129,2.129,0,0,0-2.1-1.2,10.545,10.545,0,0,0-2.127.288.618.618,0,0,0-.448.277c-.129.243.006.579.115.849a1.442,1.442,0,0,1,.105.321c-.791.055-1.589.082-2.44.082-1.809,0-3.533-.121-5.2-.238l-.071-.005c-1.7-.12-3.313-.234-4.987-.234a26.69,26.69,0,0,0-4.809.4,20.863,20.863,0,0,1-3.768.361,26.941,26.941,0,0,1-5.588-.714,44.326,44.326,0,0,0-4.749-.766c-1.374-.131-2.675-.211-3.933-.288h-.011c-1.485-.092-2.887-.178-4.417-.341-2.915,1.774-6.356,2.014-9.338,2.014-1.634,0-3.346-.083-5.16-.171-1.846-.09-3.755-.183-5.769-.2-2.9-.022-5.722-.031-8.456-.04h-.047c-5.221-.017-10.152-.033-15.438-.128-.182-.323-.384-.651-.58-.968-.267-.433-.54-.878-.772-1.318q-.624,0-1.233,0c-.882,0-1.745,0-2.58-.007h-.286c-.924,0-1.755-.008-2.58-.008a60.7,60.7,0,0,0-15.528,1.52,34.27,34.27,0,0,1-7.452.665c-1.244,0-2.46-.044-3.516-.126-3.059-.241-6.248-.354-10.036-.354-2.642,0-5.3.055-7.87.107h-.078c-2.6.054-5.288.109-8,.109-3.1,0-5.87-.075-8.461-.229-2.035-.122-4.227-.182-6.7-.182-2.917,0-5.816.079-8.886.163h-.021c-2.417.066-4.917.134-7.455.161-1.316.015-2.621.039-3.884.062-1.944.036-3.953.073-5.907.073a69.289,69.289,0,0,1-13.82-1.095,23.383,23.383,0,0,0-4.488-.423,46.96,46.96,0,0,0-7.067.692l-.218.033a51.2,51.2,0,0,1-7.782.724c-.755,0-1.513-.026-2.255-.078-1.408-.1-2.907-.147-4.583-.147-1.858,0-3.7.058-5.488.115h-.039c-1.767.056-3.595.114-5.4.114a46.963,46.963,0,0,1-9.283-.78,1,1,0,0,0-.188.07,3.943,3.943,0,0,1-1.157.342c-8.412.44-14.825.637-20.792.637-7.283,0-13.936-.3-20.339-.93-2.089-.2-3.635-.294-5.012-.294a17.349,17.349,0,0,0-5.933.877,11.013,11.013,0,0,1-3.5.809,4.783,4.783,0,0,1-2.253-.651,14.146,14.146,0,0,0-1.97-.811c-2.157.184-4.415.417-6.6.641-4.493.462-9.139.94-13.559,1.082-5.016.16-9.927.176-14.677.192-4.716.016-9.592.032-14.531.19-.943.03-1.776.044-2.545.044-5.616,0-8.141-.815-9-2.908-1.766.456-3.558.923-5.291,1.375l-.322.084c-1.316.343-2.845.742-4.341,1.13-.183-.057-.376-.109-.562-.158a4.727,4.727,0,0,1-1.164-.412c-2.45-1.527-6.179-1.738-9.845-1.738-1.4,0-2.845.035-4.37.073l-.9.022a1.775,1.775,0,0,0-.717.54c-.042.055-.06.095-.054.118,3.6.08,5.362.2,5.9.959a1.289,1.289,0,0,1,.062,1.195l-4.641-.031-.255,0c-2.936-.02-5.973-.041-9.062-.054l-5.1-.019h-.081c-6.542-.025-13.308-.05-20.2-.05-2.089,0-4.623.058-7.075.113h-.013c-1.141.026-2.219.05-3.227.069,1.661-.575,3.405-1.17,4.944-1.695l.433-.148c.923-.315,1.867-.637,2.793-.955-2.719-.159-5.343-.3-7.554-.3a24.63,24.63,0,0,0-5.94.576,14.99,14.99,0,0,0-4.858,2.169l-.615-.169-.215-.059c-4.9-1.349-8.441-2.324-12.481-2.324a30.053,30.053,0,0,0-8.66,1.391c.364.178.9.381,1.417.577a10.981,10.981,0,0,1,1.749.758.084.084,0,0,1,.036.1.94.94,0,0,1-.8.374l-.07,0c-1.885-.145-4.02-.388-6.083-.623-1.414-.161-2.875-.327-4.231-.459,1.25-.627,2.535-1.259,3.779-1.87.833-.409,1.695-.833,2.54-1.252l-8.569.522-6.309.383-.271.016c-7.319.444-14.888.9-22.345,1.364-.233.015-.5.219-.5.3a.443.443,0,0,1,0,.065c-.006.093-.015.234.112.244,1.1.072,2.256.109,3.374.145.67.021,1.5.048,2.275.084a59.319,59.319,0,0,1-6.089.487,7.232,7.232,0,0,1-5.8-2.247c-1.208.887-2.425,1.786-3.6,2.656l-.028.021-.028.021-14.088-.1h-.15c-16.63-.12-33.826-.245-50.79-.385a.115.115,0,0,0,.073-.07c.019-.069-.049-.165-.114-.257s-.141-.2-.111-.268c.02-.045.079-.073.181-.087,1-.134,2.358-.2,3.67-.265h.013c1.171-.057,2.277-.111,3.141-.209.092-.011.143-.052.14-.113,0-.1-.157-.222-.368-.228-1.617-.041-3.287-.049-5.054-.058h-.121c-.934,0-1.9-.01-2.869-.02-1.27-.012-2.6-.021-4.016-.03h-.081c-1.656-.01-3.368-.021-4.939-.039.888.366,1.767.715,2.7,1.084l.022.009.327.13c-7.214.571-12.836.824-18.23.824a154.229,154.229,0,0,1-17.1-.941c-1.251-.138-2.4-.333-3.411-.505l-.011,0a23.978,23.978,0,0,0-3.92-.463,7.172,7.172,0,0,0-4.551,1.522,8.178,8.178,0,0,1-2.119.122c-.667,0-1.383-.01-1.959-.019h-.019l-.312,0c-3.329-.044-7.052-.068-10.653-.092h-.047c-3.153-.021-6.413-.042-9.442-.076.818-.421,1.694-.853,2.541-1.271l.025-.012.151-.075c-6.457-.707-13.476-1.475-21.458-2.347q-.3.973-.6,1.945l-.039.126q-.269.87-.537,1.741l-5.554-.043h-.025c-3.755-.029-7.638-.058-11.493-.1.041-.013.065-.031.073-.057.016-.053-.043-.127-.1-.2s-.12-.151-.1-.2c.016-.037.071-.059.17-.068,1.445-.127,3.1-.206,4.7-.283,1.189-.057,2.418-.115,3.568-.194-.2-.333-.407-.677-.592-.981l-.038-.063c-.193-.317-.392-.645-.582-.966-4.767.055-9.613.108-14.3.159h-.069l-6.348.07c-.4.437-.808.881-1.2,1.31l-.013.014-.012.013c-.525.577-1.068,1.174-1.619,1.762-1.8.035-3.691.08-5.518.124l-.1,0c-4.363.1-8.873.213-13.142.213-1.007,0-1.983-.006-2.9-.018a85.645,85.645,0,0,1-11.864-.923,48.987,48.987,0,0,0-8.452-.919,11.268,11.268,0,0,0-4.609.74,14.129,14.129,0,0,1-6.635,1.406c-.595,0-1.213-.016-1.868-.032l-.152,0c-.717-.019-1.487-.037-2.32-.037-.853,0-1.659.019-2.462.057.443-.664.841-1.33,1.226-1.974.259-.433.552-.923.853-1.4q-3.4.137-6.785.269l-1.093.043-2.862.113c-.5.557-1,1.12-1.479,1.665l-.069.078c-.488.552-.993,1.122-1.494,1.681l-.984-.391-.16-.064c-1.715-.682-3.49-1.387-5.224-2.081a41.5,41.5,0,0,1-10.308,1.81,20.477,20.477,0,0,1-7.11-1.3,10.406,10.406,0,0,1-5.449,1.73,15.1,15.1,0,0,1-4.351-.76l-.021-.006a14.843,14.843,0,0,0-4.111-.883,5.333,5.333,0,0,0-3.316,1.193c-.463.347-3.36.527-4.827.573-1.1.036-2.209.077-3.184.114h-.014c-3.212.119-6.247.232-9.579.232-1.218,0-2.385-.015-3.568-.046-.834-.022-1.691-.033-2.619-.033-1.71,0-3.358.037-4.811.069l-.1,0c-1.565.035-3.04.068-4.512.068a35.312,35.312,0,0,1-12.74-1.845,5.085,5.085,0,0,0-1.419-.11c-.342,0-.734.006-1.05.011h-.032c-.379.006-.748.012-1.093.012-.368,0-.663-.006-.9-.02-2.441-.141-5.24-.361-7.947-.573l-.1-.008c-1.312-.1-2.551-.2-3.738-.288-1.393,1.5-2.794,1.929-7.493,2.317-7.867.651-13.943.941-19.7.941a138.067,138.067,0,0,1-14.8-.752c1.357-.292,2.867-.573,4.327-.844l.015,0c1.994-.371,4.055-.754,5.745-1.168.109-.027.165-.061.171-.1.012-.083-.16-.184-.341-.29s-.352-.207-.351-.293c0-.029.02-.053.059-.075l-4.378.078h-.02c-6.558.118-12.753.229-19.182.229-3.426,0-6.629-.032-9.793-.1-.937-.02-1.889-.029-2.911-.029-2.99,0-5.938.082-8.788.162h-.06c-2.842.079-5.781.161-8.656.161a86.137,86.137,0,0,1-13.627-.92l1.895-.227.329-.039c4.493-.538,9.14-1.094,13.666-1.643a66.774,66.774,0,0,0,11.289,1.065c2.785,0,5.739-.2,9.318-.506.567-.048,1.29-.071,2.211-.071,1.4,0,2.977.055,4.466.111,1.3.049,2.655.11,3.966.168l.059,0c3.192.142,6.493.29,9.712.322l2.139.025h.011c1.929.024,3.924.048,5.893.048a112.555,112.555,0,0,0,11.594-.483,63.392,63.392,0,0,1,6.474-.322c3.29,0,6.516.232,9.932.478h.014l.191.014,1.166.083c.275.019.559.029.866.029.516,0,1.036-.027,1.539-.053.389-.021.737-.038,1.092-.048,1.1-.028,2.191-.053,3.157-.076,4-.094,7.777-.182,11.829-.4,1.5-.08,3.056-.106,4.558-.132a47.975,47.975,0,0,0,10.545-.935,33.448,33.448,0,0,1,6.275-.494,12.816,12.816,0,0,1,3.121.235,19.131,19.131,0,0,0,6.723,1.2,43.85,43.85,0,0,0,4.758-.345h.01a55.545,55.545,0,0,1,6.155-.423c4.158-.011,7.108-.261,10.523-.551.81-.069,1.728-.146,2.693-.223-2.019-1.135-4.46-1.619-8.163-1.619-.77,0-1.6.02-2.541.061-4.5.195-9.264.2-13.869.2h-1.337c-9.068.005-18.252.105-27.134.2h-.051c-9.109.1-18.527.2-27.8.2-5.081,0-9.722-.03-14.189-.092l-.216,0c-.39,0-.786.015-1.17.029h-.038c-.3.011-.612.022-.919.026-8.316.107-16.7.223-24.8.336-26.1.363-53.082.738-79.838.816-4.574.013-9.331.021-14.14.022V1050.3c2.188.043,4.784.088,7.458.088,3.253,0,6.1-.069,8.688-.211.166-.009.341-.014.52-.014a35.036,35.036,0,0,1,4.893.527l.439.068a30.242,30.242,0,0,0,3.867.458,2.788,2.788,0,0,0,.725-.074,26.555,26.555,0,0,1,7.289-.894c.932,0,1.853.027,2.744.053l.073,0h.012c.865.025,1.761.05,2.649.05h1.82c11.7,0,23.944.1,38.528.326,6.2.1,12.271.22,18.143.34l.093,0c6.51.134,13.24.272,20,.367,12.875.182,25.664.317,38.031.447,8.288.087,17.683.186,26.785.3,8.273.1,16.5.219,24.46.334,15.4.221,31.318.451,47.5.554,6.556.042,13.51.062,21.884.062,7.033,0,14.229-.014,21.189-.028h.653c6.87-.013,13.973-.027,20.932-.027,3.666,0,7.03,0,10.284.011,13.415.031,27.146.1,40.426.164h.113c13.537.067,27.535.136,41.16.166,1.8,0,3.774.006,6.025.006,3.181,0,6.426,0,9.565-.009h.4c3.1,0,6.314-.009,9.439-.009,3.684,0,6.841.006,9.652.019.557,0,1.127,0,1.706,0,5.32.01,11.35.021,15.042.952a24.709,24.709,0,0,0,6.661.913c.862,0,1.775-.035,2.742-.071h.013c2.507-.1,4.4-.135,6.55-.135.549,0,1.16,0,1.87.008,8.435.068,16.944.117,25.173.165,5.308.031,11.914.069,18.117.113l.553,0c2.223,0,5.051-.089,5.9-.513a15.836,15.836,0,0,1,7.594-1.524c.894,0,1.824.028,2.81.058l.185.006c1.059.033,2.194.065,3.4.065h.053l-1.134.192c-1.478.247-3.006.5-4.538.755,14.793.393,26.177.569,36.911.569,9.385,0,18.005-.139,26.354-.424-.3-.095-.687-.215-1.065-.33l-.021-.006c-.731-.224-1.56-.478-1.961-.631-.164-.062-.253-.124-.274-.189s.019-.113.055-.166c.05-.074.1-.15,0-.234,4.363.042,8.781.081,13.053.119l.349,0,9.913.089c-.54.676-.936,1.166-1.361,1.675,5.084.041,10.138.087,15.744.139,13.434.123,27.326.251,41.21.276h.024a25.265,25.265,0,0,0,6.233-1.054l.107-.028.369-.094a26.153,26.153,0,0,1,6.42-.822,21.183,21.183,0,0,1,6.182.884,17.251,17.251,0,0,1-2.025,1.083c7.935.16,14.595.174,23.136.176.92,0,1.871.037,2.791.072h.016c.931.036,1.811.07,2.676.07,2.311,0,4.821-.232,5.912-1.954a14.464,14.464,0,0,1,2.683-.18h.179c1.493.026,3.042.033,4.683.039h.083c1.872.008,3.809.016,5.653.055.239.334,2.165,1.9,2.83,1.911.79.007,1.61.01,2.438.01,4.35,0,8.4-.089,12.685-.183l.239-.005c1.686-.037,3.43-.075,5.175-.106a4.916,4.916,0,0,0,2.248-.6,6.359,6.359,0,0,1,4.754-1.551,40.908,40.908,0,0,1,4.988.451l.018,0c1.724.221,3.338.542,4.9.853a45.518,45.518,0,0,0,7.262,1.035c4.646.191,9.11.216,12.864.216,1.326,0,2.668,0,3.965-.007h.47c1.222,0,2.485-.006,3.741-.006,1.816,0,3.334.006,4.779.02.49,0,.928.007,1.338.007,5.046,0,8.743-.372,11.571-2.223a4.867,4.867,0,0,1,1.2-.081c1,0,2.291.059,2.648.107-.207.453-.458.912-.7,1.357-.149.273-.3.554-.449.839a17.979,17.979,0,0,1,2.035-.194,11.686,11.686,0,0,0,2.927-.416c.649-.2.55-.579.462-.911-.053-.2-.1-.389,0-.528s.408-.223.915-.223a12.1,12.1,0,0,1,1.481.119,4.833,4.833,0,0,1,2.632,1.934c.091.109.161.191.224.262,4.032-.037,8.1-.093,12.039-.147h.041q2.855-.039,5.7-.076c-.877-.205-1.913-.423-2.914-.634l-.009,0c-1.429-.3-2.907-.611-3.982-.9-.1-.026-.147-.069-.14-.124.016-.127.335-.3.638-.3.707-.008,1.455-.012,2.288-.012,1.8,0,3.705.019,5.547.037h.061c1.841.018,3.745.037,5.544.037-.252.351-.517.709-.751,1.024q-.209.281-.417.565l2.317.043c3.562.067,6.926.131,10.264.131a116.917,116.917,0,0,0,24.206-2.1c1.686,1.185,6.891,1.825,10.933,1.825a14.231,14.231,0,0,0,3.746-.343c3.853-1.309,5.285-1.485,6.178-1.485a4.024,4.024,0,0,1,.682.053l.9.157a62.4,62.4,0,0,0,13.329,1.372l.75,0c.289,0,1.017-.294,1.045-.451.005-.029-.014-.051-.055-.067a12.819,12.819,0,0,0-1.877-.38h-.006c-.587-.094-1.193-.191-1.586-.294.343-.014.707-.02,1.081-.02,1.869,0,4.041.155,5.787.279l.1.007.79.056c2.01.138,3.682.208,4.971.208.391,0,.749-.006,1.066-.019.56-.023,1.385-.1,2.259-.183,1.176-.111,2.39-.225,3.15-.225a2.081,2.081,0,0,1,.653.065,18.628,18.628,0,0,0,7.245,1.252c1,0,2.064-.039,3.189-.08l.071,0c.568-.021,1.155-.042,1.773-.06,2.281-.064,4.471-.3,6.589-.52h.008a72.078,72.078,0,0,1,7.7-.531h.16a77.79,77.79,0,0,1,9.9.864h.01c1.526.2,3.1.407,4.669.564-.679-.682-1.347-1.359-2.044-2.07,2.748.024,5.476.046,8.5.07l-.766.5-.352.231-.062.04c-.466.306-.947.622-1.415.934,3.646.193,6.256.276,8.726.276a77.418,77.418,0,0,0,11.083-.735l-2.955-.229-.516-.04c-2.343-.182-5-.388-7.606-.584,4.908-.229,9.872-.33,16.1-.33,2.572,0,5.152.016,7.557.034q.423,0,.844,0c.824,0,1.647-.007,2.444-.015h.133c.821-.008,1.6-.015,2.389-.015,3.656,0,7.865.13,11.532,1.69a17.868,17.868,0,0,0,4.688.51,6.6,6.6,0,0,0,1.758-.15,29.123,29.123,0,0,1,10.442-1.781c2.571,0,5.156.234,8.149.5,1.181.107,2.4.218,3.7.32.335.027.671.039,1.028.039.55,0,1.077-.031,1.586-.062.291-.017.62-.037.951-.049l1.359-.051.11,0c7.39-.279,15.032-.568,22.5-.808.122,0,.255-.006.394-.006a13.684,13.684,0,0,1,4.251.592,15.16,15.16,0,0,0,6.573,1.5,28.663,28.663,0,0,0,7.511-1.262,15.293,15.293,0,0,1,3.227-.263,13.018,13.018,0,0,1,3.117.229,5,5,0,0,0,3.542,1.5,13.231,13.231,0,0,0,3.7-.744,8.186,8.186,0,0,1,2.514-.363c.526,0,1.048.037,1.508.07l.057,0h.01c.483.034.939.067,1.406.067l.183,0c.605-.013,1.145-.019,1.649-.019a37.592,37.592,0,0,1,8.559.927,3.312,3.312,0,0,0,.642.052,21.741,21.741,0,0,0,3.66-.513l.029-.006a11.968,11.968,0,0,0,1.251-.359,7.677,7.677,0,0,1,2.281-.5h.258c7.711,0,15.5.082,23.03.161h.07c3.273.035,6.658.07,9.985.1a20.115,20.115,0,0,1,2.951.241,39.1,39.1,0,0,0,7.563.944,39.283,39.283,0,0,0,5.385-.445,35.125,35.125,0,0,1,4.563-.3c.779,0,1.509.029,2.17.086,9.941.866,18.275,1.269,26.23,1.269,2.166,0,4.345-.03,6.476-.09,2.245-.063,4.489-.177,6.659-.288h.025c3.239-.165,6.588-.335,9.979-.335,1,0,1.976.015,2.908.044.368.012.753.018,1.144.018,1.974,0,4.022-.15,6-.3h.009c1.481-.109,3.012-.222,4.523-.273.065,0,.131,0,.2,0a12.6,12.6,0,0,1,2.076.233c.484.081.98.165,1.517.22.249.025.542.059.853.095l.045.005a33.938,33.938,0,0,0,3.636.287,7.446,7.446,0,0,0,1.106-.07,148.924,148.924,0,0,1,20.457-1.219h.061c2.1-.028,4.269-.058,6.413-.115,12.32-.331,25.077-.492,39-.492,1.22,0,2.465,0,3.7,0a75.78,75.78,0,0,1,8.128.6c1.085.12,2.109.233,3.14.327a8.029,8.029,0,0,1,.829.148l.011,0a3.92,3.92,0,0,0,.546.1.125.125,0,0,0,.039,0,23.3,23.3,0,0,1,7.8-1.066c1.049,0,2.13.029,3.175.058h.012c1.05.028,2.135.057,3.232.057.446,0,.858,0,1.26-.015l2.353-.059h.006c8.423-.211,16.379-.411,24.37-.411,10.82,0,19.972.377,28.8,1.187.236.022.5.033.772.033a24.919,24.919,0,0,0,2.755-.216h.005l.014,0c.547-.063,1.113-.128,1.646-.167,1.228-.091,2.5-.206,3.721-.317,2.909-.265,5.913-.537,8.883-.546,1.172,0,2.471,0,3.971,0,1.892,0,3.816,0,5.471.005h.637c1.783,0,4,.006,6.1.006,7.154,0,14.859-.034,22.731-.281l.989-.031.05,0c2.072-.067,4.215-.135,6.322-.135a51.7,51.7,0,0,1,9.165.678,37.886,37.886,0,0,0,6.83.726,25.687,25.687,0,0,0,6.8-.952l.125-.034a9.435,9.435,0,0,1,2.277-.414,2.86,2.86,0,0,1,.35.02,12.035,12.035,0,0,1,2.555.7,14.95,14.95,0,0,0,2.064.625c.826-.12,1.661-.268,2.545-.424l.014,0a38.28,38.28,0,0,1,6.591-.776h.24c.7.009,1.392.013,2.128.013,1.793,0,3.549-.026,5.1-.048h.1c1.664-.024,3.236-.047,4.831-.047a65.6,65.6,0,0,1,14.355,1.295,8.577,8.577,0,0,0,1.677.141,7.365,7.365,0,0,0,1.268-.092,69.528,69.528,0,0,1,12.654-.969c1.875,0,3.8.037,5.658.072,1.754.033,3.567.068,5.393.073,3.86.01,7.686.01,11.386.01,10.983,0,21.358,0,32.645.245,1.907.042,3.794.193,5.618.338h.009c2.13.17,4.143.331,6.168.331a22.64,22.64,0,0,0,8.007-1.263,2.261,2.261,0,0,1,.677-.063c.2,0,.414.006.625.012h.005c.23.007.453.013.65.013h.042c17.729-.144,35.938-.265,54.123-.357,1.289-.006,2.59-.033,3.847-.058h.029c1.414-.029,2.875-.059,4.3-.059a48.956,48.956,0,0,1,7.846.507,20.124,20.124,0,0,0,3.208.253,37.174,37.174,0,0,0,4.6-.365l.061-.007a37.918,37.918,0,0,1,4.777-.372c.152,0,.3,0,.453,0,1.707.033,3.468.05,5.382.05,3.578,0,7.159-.059,10.622-.116h.005c1.675-.027,3.408-.056,5.128-.078,6.665-.083,13.374-.119,19.863-.154,4.875-.026,9.917-.053,14.931-.1q-.082-.691-.161-1.385l-.013-.112q-.072-.629-.146-1.262c1.827.055,3.731.077,5.573.1h.041c2.545.029,5.173.06,7.627.176a.956.956,0,0,1,.768.41.977.977,0,0,0,.6.392c-1.186.163-2.365.31-3.5.451l-.025,0c-1.078.134-2.3.286-3.523.453a1.366,1.366,0,0,1,.731.455,1.312,1.312,0,0,0,.942.483c3.275.181,6.973.206,10.159.206l1.442,0c1.9,0,3.754-.1,5.544-.194h.021c1.694-.089,3.445-.182,5.218-.19,1.64-.008,3.312-.012,5.115-.012,3.339,0,6.708.013,9.967.026h.1c3.078.012,6.567.026,9.924.026,7.6,0,16.629-.059,26.027-.494.191-.009.393-.014.6-.014a33.846,33.846,0,0,1,5.086.548h.005c.9.143,1.756.277,2.582.372a10.592,10.592,0,0,0,1.2.059c.494,0,1.053-.022,1.66-.067.919-.068,1.852-.158,2.755-.245h.014c1.5-.145,3.053-.3,4.6-.351,3.3-.118,6.566-.207,10.19-.3v4.967c-4.8-.152-9.481-.23-13.9-.23-7.606,0-14.772.23-21.3.684,11.011.088,22.853.157,35.2.2v311.327l-.345,0-13.056-.113-14.1-.121c-2.892-.024-5.949-.036-9.345-.036-4.382,0-8.826.02-13.124.039h-.21c-4.365.02-8.878.04-13.346.04-.057.138-.13.278-.194.4a3.564,3.564,0,0,0-.247.545c1.448.08,2.9.182,4.443.291h.03c3.277.231,6.665.47,9.9.47.97,0,1.9-.022,2.757-.065,4.275-.215,8.879-.32,14.075-.32,4.581,0,9.218.079,13.7.156,3.551.061,7.223.124,10.915.149,2.792.019,5.531.036,8.141.051V1374l-.063-.005h-.013c-1.749-.139-3.209-.206-4.463-.206-4.234,0-6.476.763-7.74,2.633-1.377.017-2.744.041-4.066.064h-.082c-2.483.043-4.827.084-7.157.084a81.569,81.569,0,0,1-17.85-1.6,62.733,62.733,0,0,1-12.616,1.333,58.522,58.522,0,0,1-15.756-2.217c-.56-.024-1.128-.036-1.687-.036a60.25,60.25,0,0,0-9.8.982l-.04.006a60.637,60.637,0,0,1-9.907.99l-.489,0h-.013c-5.578-.068-11.345-.139-17.087-.139-2.644,0-5.069.015-7.415.045-.615.848-1.243,1.724-1.851,2.571l-.069.1-.732,1.02c-1.763-.232-3.5-.458-5.121-.67-2.611-.341-5.571-.727-8.447-1.109a.3.3,0,0,0,.249-.253c.038-.122.077-.248.354-.266,2.079-.137,4.317-.227,6.481-.315h.015c1.614-.065,3.283-.132,4.882-.219a18.837,18.837,0,0,0-6.316-1.133c-.2,0-.39,0-.574.012-1.219.053-2.372.078-3.527.078a113.61,113.61,0,0,1-11.779-.75l-.966-.094c-4.18-.409-8.674-.617-13.359-.617-3.905,0-8,.144-12.168.428-2.915.2-5.773.376-8.68.376-2.13,0-4.208-.09-6.542-.286-.74-.062-1.443-.128-2.122-.191l-.047,0c-1.822-.171-3.4-.319-4.9-.319a13.585,13.585,0,0,0-6.62,1.505c-.7.361-3.556.556-5.89.556-.821,0-1.568-.023-2.16-.067-3.072-.228-6.439-.348-9.736-.348-3.674,0-7.175.141-10.407.42-1.22.106-2.814.161-4.608.161a78.384,78.384,0,0,1-9.8-.539c-1.31-.209-2.443-.441-3.443-.645l-.014,0a24.587,24.587,0,0,0-5.109-.69,14.808,14.808,0,0,0-1.529.08,30.86,30.86,0,0,0-4.583.841,33.238,33.238,0,0,1-3.439.7,32.453,32.453,0,0,1-4.486.359,17.865,17.865,0,0,1-7.849-1.8c-5.879,1.71-12.506,1.941-18.213,1.941-2.226,0-4.514-.04-6.727-.079h-.017l-.181,0c-1.041-.018-2.118-.037-3.173-.051-10.362-.137-20.58-.143-30.461-.149h-.033c-12.887-.007-26.213-.015-39.677-.32-5.523-.127-11.606-.186-19.143-.186-3.748,0-7.567.014-11.26.027h-.24c-3.466.012-7.394.026-11.19.026-2.528,0-4.8-.006-6.952-.018-.453,0-.937,0-1.439,0-2.972,0-6.2.041-9.325.081l-3.046.037a38.7,38.7,0,0,0,10.58,1.408,88.953,88.953,0,0,0,9.622-.671l5.068,1.123.757.168.305.068c2.275.5,4.627,1.026,6.931,1.535-1.18.079-2.466.137-3.71.193-1.735.079-3.527.16-5.061.3-.113.01-.176.036-.193.078-.025.06.049.146.12.23s.14.165.123.224c-.008.028-.034.049-.08.064,21.854.165,44.01.314,65.436.459l.711,0,5.566.037c-.34-.078-.763-.167-1.211-.26l-.022,0a18.664,18.664,0,0,1-3.9-1.058.95.95,0,0,1-.525-.636.943.943,0,0,1,.349-.749,4.279,4.279,0,0,1,2.166-.391,5.148,5.148,0,0,1,.727.042,43.21,43.21,0,0,0,6.871.51c2.046,0,4.074-.109,6.22-.225h.01c1.271-.069,2.585-.139,3.971-.191.282-.01.576-.016.876-.016a53.843,53.843,0,0,1,6.445.526h.013c1.17.143,2.275.278,3.369.37,2.048-.159,3.933-.352,5.756-.539h.01c2.958-.3,5.748-.589,9.176-.743.452-.02.881-.031,1.274-.031,2.222,0,3.475.325,3.724.966.176.452-.149,1.059-.963,1.8l-12.707-.087-.775-.005-1.888-.013-12.479-.085,0,.056c.006.161.013.325.013.489,10.945.073,21.895.151,33.475.236.084-.265.165-.536.243-.8l0-.008,0-.006c.152-.511.309-1.041.5-1.553,1.618-.109,3.433-.16,5.711-.16,1.154,0,2.334.012,3.376.023h.021c1.042.01,2.223.023,3.347.023a59.323,59.323,0,0,0,9.568-.6,47.19,47.19,0,0,1,6.621-.385,18.189,18.189,0,0,1,5.075.41,9.381,9.381,0,0,0,4.4,1.2,16.321,16.321,0,0,0,3.388-.482l.029-.006c.454-.1.923-.195,1.43-.29.764-.144,1.433-.279,2.08-.409l.048-.01A33.1,33.1,0,0,1,1.3,1377.4c2.055-.057,4.011-.085,5.979-.085,4.041,0,7.763.116,12.108.291a11.18,11.18,0,0,1,3.781,1.3l0,0c.351.169.655.315.9.419-3.557.2-7.229.394-10.685.579l-.209.011c-3.628.2-7.379.4-11.056.6l.2.375.019.036.044.082.176.329c8.075-.161,16.28-.3,24.215-.437l.108,0,.485-.008c4.226-.072,8.6-.147,12.9-.224a.108.108,0,0,1-.077-.048c-.02-.039,0-.093.026-.146s.048-.112.023-.152-.071-.05-.154-.054c-2.6-.13-5.347-.225-8.006-.317h-.009c-2.295-.079-4.667-.161-6.956-.266a6.733,6.733,0,0,1,4.209-2.1c1.59-.148,3.079-.22,4.551-.22a54.257,54.257,0,0,1,12.923,1.8c1.907.434,3.878.882,6.077,1.268a15.549,15.549,0,0,1,6.32-1.573,17.71,17.71,0,0,1,5.6,1.067,30.769,30.769,0,0,0,8.11,1.055h2.312c13.083,0,26.34-.053,41.721-.167,12.607-.092,26.021-.246,38.993-.395h.114l1.833-.021-1.433-.245-.284-.048c-3.744-.639-7.615-1.3-11.411-1.951l-6.9,1.772c-4.45-1.034-8.009-1.863-11.2-2.611,5.3-.294,10.909-.431,17.653-.431,4.755,0,9.6.068,14.279.134h.152c4.755.067,9.672.136,14.575.136h.8a.078.078,0,0,0-.02.067c.02.1.243.212.459.319s.46.229.457.332c0,.042-.039.078-.117.112-1.048.459-2.481.908-3.868,1.341l-.009,0c-1.02.319-2.074.648-2.963.979l2.729.081.1,0c2.129.064,4.33.13,6.38.181,2.459.061,4.972.126,7.336.187,11.554.3,22.466.581,34.1.624l.532,0c1.6.005,3.582.012,5.467.012,4.215,0,7.461-.031,10.524-.1v.891h-.027l-1.815-.009c-3.7-.018-7.521-.037-11.318-.037-2.468,0-4.7.008-6.816.025-6.75.051-13.589.139-20.2.225h-.092l-.336,0c-4.579.059-9.314.12-13.954.168,5.82.243,13.127.4,18.616.4.562,0,1.105,0,1.615-.005l.5,0c5.275,0,6.507.578,9.026,2l1.358.007,3.533.017.343,0-218.011,0a24.646,24.646,0,0,1,5.451-.59c1.526,0,3.02.114,4.751.246h.007c.806.061,1.64.125,2.54.182,1.505.094,3.161.141,5.063.141,2.063,0,4.168-.054,6.2-.106,1.428-.036,2.905-.074,4.335-.092H26a.451.451,0,0,1-.106.025.616.616,0,0,0-.125.029s0,0,.017,0c2.179-.034,4.442-.067,6.631-.1l.443-.006h.046c4.484-.065,9.12-.132,13.492-.215.13,0,.152-.053.153-.083,0-.075-.109-.181-.256-.2-.689-.1-1.672-.15-2.624-.2h-.019a26.732,26.732,0,0,1-3.007-.253c-.1-.019-.159-.052-.175-.1-.029-.09.1-.22.217-.346s.225-.234.215-.318a.091.091,0,0,0-.045-.066c7.53.329,15.795.715,23.272,1.084.9.044,2.262.092,3.379.092a10.051,10.051,0,0,0,1.741-.09,47.8,47.8,0,0,1,8.369-1.1,4.9,4.9,0,0,1,1.247.116,40.26,40.26,0,0,0,11.832,1.465c1.416,0,2.9-.031,4.462-.065l1.564-.032c4.429-.084,8.715-.143,12.861-.2h.022c2.2-.03,4.689-.064,7.172-.1,2.972-.047,5.955-.084,8.84-.12h.08c7.458-.093,15.169-.19,22.984-.454a5.871,5.871,0,0,0,2.932-1.421l.019-.014c.144-.108.268-.2.37-.272-1.3.046-2.627.112-3.909.177-2.3.116-4.673.236-7.03.24q-2.942,0-5.878,0c-10.642,0-21.411-.029-31.825-.057h-.378c-7.98-.021-16.233-.043-24.412-.052-2.541,0-5.209,0-7.929,0-12.622,0-24.271.038-35.611.115-15.5.1-32,.281-50.453.543l-.278,0c-2.149.03-5.093.07-5.793.928a.671.671,0,0,0-.143.574c.7-.1,1.367-.194,2.01-.288l.021,0a41.828,41.828,0,0,1,5.912-.6,13.025,13.025,0,0,1,5.963,1.349,4.88,4.88,0,0,0,1.234.241Zm-952.562-1.667c-4.188,0-8.3.335-11.767.662,3.714.174,7.488.353,11.138.526q4.575.217,9.151.433c.026-.266.045-.531.064-.787l.006-.089c.006-.081.012-.162.018-.244A71.976,71.976,0,0,0-959.053,1383.335Zm243.082-.427h0c1.2,1.95,4.96,1.953,8.936,1.956.863,0,1.752,0,2.627.021.356.008.686.013.981.013,3.612,0,3.759-.565,4.026-1.592.025-.094.049-.187.076-.282-5.773-.038-11.484-.079-16.408-.114l-.238,0Zm341.075.508h-.024c-2.558.074-6.12.292-8.286.507-.115.011-.18.04-.2.086-.03.08.084.2.194.323s.215.232.2.312c-.007.03-.032.053-.076.07,3.362-.205,6.079-.386,8.808-.588-.212-.037-.231-.2-.25-.348C-374.553,1383.6-374.576,1383.416-374.9,1383.416Zm196.619.056a12.149,12.149,0,0,1,1.216.053,229.221,229.221,0,0,0,23.639,1.049c.617,0,1.247,0,1.925,0a15.115,15.115,0,0,0,3.932-.74c.5-.141.966-.273,1.409-.375-3.195-.112-6.369-.251-9.438-.386l-.048,0h-.005c-6.872-.3-13.363-.587-20.016-.587a169.867,169.867,0,0,0-17.61.841,1.6,1.6,0,0,1-.161.008,7.7,7.7,0,0,1-1.356-.2l-.334-.067a42.848,42.848,0,0,0-8.091-.673c-1.848,0-3.657.072-5.572.148h-.014l-.1,0c-1.8.071-3.831.151-5.868.151-1.595,0-3.052-.048-4.456-.147-.051,0-.107-.006-.168-.006a24.348,24.348,0,0,0-4.753.963l.077.022a17.712,17.712,0,0,0,3.437.743h.027c10.771-.155,21.471-.363,31.819-.563l1.291-.025,6.324-.122c.4-.008.819-.025,1.221-.041h.033C-179.374,1383.5-178.81,1383.472-178.276,1383.472Zm-124.3-1.18h0a19.635,19.635,0,0,0,9.329,2.143c1.078,0,2.217-.058,3.482-.178.683-.066.831-.656.929-1.047a1.353,1.353,0,0,1,.1-.308c-3.078-.146-6.179-.279-9.178-.408Q-300.244,1382.394-302.574,1382.292ZM-786.5,1381.8c.928,1.4,1.948,2.467,5.854,2.467.714,0,1.522-.034,2.4-.1-1.825-.524-3.694-1.059-5.344-1.531l-.648-.185Zm645.149,1.367a4.375,4.375,0,0,0-.007,1.075c.848-.035,1.977-.037,3.069-.039h.026c1.505,0,3.062-.006,3.98-.092a.354.354,0,0,0,.368-.351.541.541,0,0,0-.523-.5c-.717-.062-1.818-.071-2.8-.071l-.848,0h-.27l-1.01,0c-.6,0-1.362,0-1.985-.026Zm-745.591-.8h0c.984.191,2.022.421,3.026.643a38.355,38.355,0,0,0,7.295,1.171c1.944,0,3.047-.564,3.371-1.724C-877.2,1382.433-881.555,1382.4-886.942,1382.371Zm68.144.277a18.547,18.547,0,0,0-6.365,1,31.247,31.247,0,0,0,5.194.509,16.3,16.3,0,0,0,6.207-1.179A44.988,44.988,0,0,0-818.8,1382.648Zm997.259,0c-.754.386-1.58.8-2.6,1.3,4.826.061,10.171.118,16.338.171-1.439-.069-2.792-.082-4.1-.094C184.409,1383.991,181.222,1383.96,178.462,1382.649Zm-421.157.021c-4.746,0-9.4.262-14.328.54l-1.784.1c8.695.273,17.409.544,25.836.806.038-.14.077-.279.116-.418l.015-.053.013-.045c.043-.153.086-.307.128-.461A99.541,99.541,0,0,0-242.695,1382.67Zm-588.975.046c-2.345,0-4.678.039-6.934.077-1.4.024-2.849.048-4.314.063a38.591,38.591,0,0,0,8.676,1.069c.347.005.655.007.94.007,1.827,0,3.468-.078,5.206-.161l.044,0c.782-.037,1.591-.076,2.421-.107-.146-.058-.315-.133-.479-.2a6.845,6.845,0,0,0-2.445-.716C-829.546,1382.724-830.565,1382.716-831.67,1382.716Zm565.936-.439-5.414.15q-8.313.231-16.625.463c7.057.328,14.389.661,20.858.955l.122.005.33-.493.052-.078C-266.182,1382.938-265.958,1382.6-265.734,1382.277Zm417.845-.451c1.47.286,2.693.6,3.877.9a25.3,25.3,0,0,0,6.737,1.065,26.214,26.214,0,0,0,4.461-.421c-3.1-1.391-6.415-1.411-10.253-1.435C155.408,1381.927,153.831,1381.917,152.111,1381.826Zm-490.587,1.2c0,.133,0,.258-.007.39l9.71.066,18.837.13v-.045c0-.112,0-.229.008-.342l-2.989-.021h-.167C-321.406,1383.145-330.009,1383.086-338.476,1383.024Zm49.787-.183h0s0,0-.009,0-.031.006-.034.015,0,.025.013.038a.489.489,0,0,0,.191.016c.059,0,.11,0,.11,0,.5-.015.59-.018.605-.02h0c-.069,0-.718-.017-.823-.037l-.015,0a.12.12,0,0,1-.031-.009Zm-565.879-.32c-1.516.025-3.211.074-4.85.121-1,.029-2.039.059-3.017.083.937,0,1.942.012,2.914.02h.174c1.317.011,2.809.024,4.141.024l.748,0a.162.162,0,0,0,.1-.025.075.075,0,0,0,.031-.062c0-.076-.1-.161-.232-.161Zm1032.915-.011h-.068c-.037,0-.056.008-.058.016s.084.052.154.078a.3.3,0,0,1,.088.039.19.19,0,0,0,.075-.029l-.009-.011c.127,0,.475-.008.844-.012h.1c.658-.007.969-.01.978-.016C180.427,1382.565,178.766,1382.51,178.347,1382.51Zm-215.681-2.181a32.611,32.611,0,0,0-6.607.807l5.975.044,6.484.048A19.5,19.5,0,0,0-37.334,1380.329Zm-956.935.669v0l-.4.117c.111-.028.227-.052.356-.077.083-.017.186-.037.283-.059l-.235.018c.428-.125.648-.191.653-.2-.016,0-.245.063-.741.2Zm984.664-.8c-1.34.024-2.816.034-4.244.044h-.03c-2.009.014-4.086.028-5.82.08-.211.008-.307.118-.308.225s.1.23.315.242c1.645.08,3.635.128,5.56.175h.057c1.342.032,2.73.066,3.992.11C-9.923,1380.8-9.754,1380.508-9.6,1380.193Zm-831.175.579h0c.3.078.993.262,1,.263s-.1-.027-.739-.2a1.109,1.109,0,0,0-.212-.074l-.051-.016a.787.787,0,0,0,.1.016l.005,0a.881.881,0,0,0-.159-.044l-.029-.007c.251-.417.43-.756.274-1.032-.211-.373-1.022-.547-2.552-.547-.113,0-.23,0-.353,0-3.889.062-7.911.2-11.8.326l-.13,0c.512-.005,1.1-.008,1.662-.008,5.419,0,9.085.274,11.208.839.819.217,1.461.388,2.02.539h-.006Zm661.935-.914-7.166.056-.46,0c-2.705.022-5.5.045-8.25.064a35.019,35.019,0,0,0,7.888,1.006A30.771,30.771,0,0,0-178.844,1379.858Zm-801.359-.276a60.9,60.9,0,0,0-13.823,1.4l6.3-.483,1.781-.136,9.351-.716C-977.845,1379.6-979.026,1379.582-980.2,1379.582Zm138.78,1.021h0l.644.17-.535-.141-.109-.028Zm14.523-1.072a74.242,74.242,0,0,0-13.85,1.205c11.374-.182,20.085-.319,28.356-.446C-817.883,1379.835-822.45,1379.531-826.9,1379.531Zm607.9.363h-.92c-.194,0-.3.1-.3.2s.076.169.248.17c4.566.06,8.3.089,11.428.089l1.6,0c.208,0,.231-.1.253-.194s.038-.161.165-.183c-1.19-.008-2.43-.019-3.642-.029l-.427,0h-.042C-213.442,1379.919-216.342,1379.893-219,1379.893Zm-636.423-.43c-2.762.026-6,.116-9.888.275C-862.211,1379.673-858.884,1379.581-855.42,1379.464Zm-630.743-4.944q-2.859.471-5.716.947l-.373.062-.637.106c-1.855.308-3.759.624-5.637.933.315.313.587.587.83.836,1.895-.271,3.562-.367,5.033-.452C-1489.288,1376.757-1487.058,1376.628-1486.164,1374.52Zm228.125-1.369h0c-3.415.841-6.923,1.707-10.725,2.646,2.33.016,4.817.035,7.407.055l14.286.111c-3.793-.971-7.486-1.917-10.967-2.813Zm-288.533,1.629c-.408,0-.747.163-.767.3-.006.045.017.107.165.15a38.07,38.07,0,0,0,4.084.685h.008a1.419,1.419,0,0,0,.953-.725.074.074,0,0,0-.065-.089c-.545-.133-3.814-.318-4.371-.323Zm164.787-.832h0c-1.328,0-3.437.087-5.132.154l-.95.037c-.1,0-.138.061-.137.109,0,.065.062.135.174.136l1.165.015c1.2.016,2.847.039,4.13.039.521,0,.937,0,1.273-.01.121,0,.146-.048.145-.085,0-.138-.354-.4-.663-.4Zm-53.516-2.792c-8.08.183-18.135.41-27.739.618l.046.1c.141.306.3.653.453,1,2.2.1,4.483.147,6.77.147,7.423,0,14.387-.512,20.807-1.066-.055-.132-.112-.266-.168-.4l-.006-.014-.008-.019C-1435.2,1371.4-1435.249,1371.278-1435.3,1371.156Zm6.919-.9c-.756,0-2.649.365-2.891.726a.115.115,0,0,0-.016.112c.142.362,1.833,1.081,2.843,1.511l.367.157c.156-.066.387-.146.656-.239l.018-.006c.74-.257,1.752-.609,1.856-.894a.125.125,0,0,0-.009-.112,5.54,5.54,0,0,0-2.66-1.248A1.61,1.61,0,0,0-1428.381,1370.261Zm51.982-.34c-2.629,0-5.047.015-7.39.044-1.307.015-3.494,1.14-4.669,1.745l-.059.03c-.179.092-.334.172-.459.233,3.022.02,6.125.055,8.862.087,4.318.05,8.784.1,13.25.1,2.761,0,5.31-.02,7.794-.06a16.087,16.087,0,0,0,5.051-1.5c.478-.2.89-.371,1.23-.495-3.087-.02-6.274-.054-9.087-.084C-1366.595,1369.974-1371.475,1369.922-1376.4,1369.922Zm265.2-.829c-4.054,0-6.893.971-8.679,2.968,2.406-.082,4.96-.257,7.431-.426,3.225-.221,6.561-.449,9.619-.475h.069a12.474,12.474,0,0,1,2.814.414l.04.009a11.933,11.933,0,0,0,2.677.406c.1,0,.2,0,.3-.008,5.927-.307,11.086-.691,16.735-1.124l-1.354-.007c-5.605-.036-12.582-.08-19.576-.135-.818-.167-1.53-.361-2.219-.548a25.162,25.162,0,0,0-3.6-.773A33.1,33.1,0,0,0-1111.2,1369.092Zm88.973.366h0c-.649.228-1.44.438-2.206.642a20.636,20.636,0,0,0-2.819.884c-.048.021-.073.048-.075.08-.006.1.233.243.463.38.252.149.51.3.456.4,2.59-.113,5.14-.169,7.6-.224a155.324,155.324,0,0,0,15.785-.886l-8.5-.566c-3.636-.242-7.191-.478-10.71-.714Zm-197.3-.141h0a17.7,17.7,0,0,1-1.6.817,9.862,9.862,0,0,0-1.93,1.059.041.041,0,0,0-.012.048,3.81,3.81,0,0,0,1.8.449.953.953,0,0,0,.237-.023,15.246,15.246,0,0,0,2.31-.948c.6-.281,1.216-.572,1.752-.766-.809-.223-1.621-.425-2.556-.635Zm32.963-.348c-2.635,0-5.168.066-7.744.2-1.841.1-3.669.123-5.436.148h-.03c-4.659.066-9.059.129-12.988,1.437.246.06.541.141.853.227a14.563,14.563,0,0,0,3.379.659c19.424,0,39.023-.07,57.976-.138h.051l15.632-.055a.23.23,0,0,1-.047-.057c-.051-.071-.126-.176-.2-.176l-.241,0c-2.165,0-10.878-.35-11.111-.8a2.129,2.129,0,0,0-1.418-.9,8.495,8.495,0,0,0-2.109-.241,5.869,5.869,0,0,0-1.886.224,14.284,14.284,0,0,1-6.356,1.423,40.7,40.7,0,0,1-4.907-.411c-.809-.1-1.722-.21-2.68-.307-1.311-.132-2.437-.268-3.525-.4h-.005c-2.123-.256-3.956-.476-6.276-.568C-1179.3,1369.1-1182.892,1368.969-1186.567,1368.969Zm214.8-.744a131.214,131.214,0,0,0-16.581,1.342c-3.355.416-6.822.846-10.463,1.13.92.078,1.987.2,3.116.333a64.641,64.641,0,0,0,6.771.554c.379,0,.735-.011,1.058-.033,2.6-.181,4.955-.411,7.232-.632h.007a130.09,130.09,0,0,1,13.411-.818c.68,0,2.038-1.249,2.234-1.553C-967.221,1368.331-969.44,1368.225-971.766,1368.225Zm-285.215.791c-3.407,0-6.9.072-10.285.142h-.07c-2.087.043-4.244.087-6.364.114a151.321,151.321,0,0,0,24.786,2.307,98.852,98.852,0,0,0,13.1-.843A106.157,106.157,0,0,0-1256.981,1369.016Zm194.151,2.381c2.036,0,4.085.032,5.893.06h.045l.119,0c1.959.03,3.806.059,5.684.059a84.618,84.618,0,0,0,13.529-.9l-9.527-.06h-.027l-18.545-.118c-.019.164-.039.327-.059.49l-.006.049c-.018.148-.036.3-.053.443C-1064.82,1371.405-1063.855,1371.4-1062.83,1371.4Zm-344.9-.816a24.665,24.665,0,0,0-6.159.9l7.552-.264,3.982-.139A38.639,38.639,0,0,0-1407.734,1370.581Zm99.7-1.575c-2.991,0-5.781.032-8.529.1-2.22.053-4.471.074-6.648.094h-.044c-7.141.066-14.524.135-21.525,1.352a174.916,174.916,0,0,0,19.5.921c3.766,0,7.6-.068,11.3-.134h.057c3.724-.067,7.575-.135,11.544-.135,2.5,0,4.787.027,6.981.084l.2,0a23.126,23.126,0,0,0,6.154-1.231c.072-.022.111-.052.118-.092.016-.091-.15-.217-.31-.339s-.311-.237-.312-.326a.079.079,0,0,1,.034-.065c-1.821-.026-3.594-.055-5.254-.083C-1299.288,1369.078-1303.562,1369.007-1308.035,1369.007Zm734.161,1.085a34.034,34.034,0,0,0-8.624.817l18.992.13,1.807.012,11.819.081,10.719.073.518,0c7.088.049,14.417.1,21.555.14a7.72,7.72,0,0,0-1.91-.9c-1.631-.077-3.461-.131-5.229-.183h-.02c-1.469-.043-2.856-.084-4.014-.135-1.515-.064-2.484-.131-3.511-.2h-.006c-.657-.045-1.4-.1-2.338-.148.209-.362.253-.638.133-.846-.249-.432-1.174-.52-2.486-.52-.37,0-.773.007-1.163.014h-.06c-.4.007-.861.015-1.323.015-.227,0-.436,0-.64-.006l-.767-.016h-.037c-1.139-.024-2.43-.052-3.672-.052a27.068,27.068,0,0,0-5.727.413,55.668,55.668,0,0,1-13.676,1.319c-.732,0-1.46,0-2.267-.007h-.257q-1.1,0-2.271-.006c-.628,0-1.2,0-1.737.006q-.463,0-.92,0l-1.239,0h-.306C-572.976,1370.094-573.431,1370.092-573.874,1370.092Zm179.236-2.029c-3.78,0-7.35,0-10.408,1.589-.743.385-4.623.388-6.28.39-6.007,0-12.386.019-18.555.037h-.092c-5.573.017-11.336.034-16.909.037l2.187.167.18.014c6.563.5,13.349,1.024,20.1,1.024.587,0,1.176,0,1.8-.013,5.025-.07,10.072-.185,14.953-.3l.086,0c7.84-.178,15.946-.362,23.945-.362,5.761,0,10.973.094,15.935.287,3.42.133,6.967.2,10.543.2,1.367,0,2.77-.01,4.171-.03,8.043-.113,16.044-.254,23.781-.39h.006c11.5-.2,23.4-.411,35.43-.531,15.153-.149,31.116-.224,47.446-.224,4.671,0,9.39.006,14.026.019,5.84.016,11.836.161,17.635.3,4.82.117,9.8.237,14.695.284.344,0,.7.005,1.067.005,2.526,0,5.077-.08,7.544-.157l.059,0c2.45-.076,4.983-.154,7.475-.154.41,0,.806,0,1.177.006,4.824.049,9.725.178,14.465.3h.018c5.5.145,11.2.294,16.8.32,4.711.022,9.72.032,15.314.032,8.156,0,16.666-.024,24.175-.044,6.373-.018,13.6-.038,20.5-.043l16.85-.015h.346c10.861-.01,22.092-.021,33.126-.021,11.517,0,21.652.012,30.983.037,1.546,0,3.139.076,4.679.145,1.564.07,3.18.142,4.707.142,1.159,0,2.167-.041,3.081-.126,4.669-.432,9.293-.632,14.552-.632,4.935,0,9.832.18,14.832.38,2.648.106,5.307.161,7.9.161,1.611,0,3.223-.021,4.791-.061,2.722-.07,5.529-.17,8.244-.267l.068,0c5.126-.184,10.426-.374,15.519-.374,2.325,0,4.433.038,6.443.118.865.034,1.728.051,2.637.051,2.544,0,4.977-.137,7.124-.258l.073,0c2.222-.125,4.516-.253,6.872-.253.3,0,.6,0,.9.006,4.294.06,8.537.164,12.64.265h.011c6.16.151,12.53.307,18.929.307l1.235,0q.9,0,1.791,0c2.479,0,5.024.015,7.269.028h.293c2.31.014,4.928.03,7.443.03a235.743,235.743,0,0,0,23.7-.961c-.756-.218-1.478-.461-2.176-.7a27.116,27.116,0,0,0-5.6-1.413,50.86,50.86,0,0,0-6.1-.359,29.885,29.885,0,0,0-4.841.325,95.349,95.349,0,0,1-16.5.979h-.289l-1.42,0c-4.663.013-8.995.019-13.243.019-13.04,0-25.141-.061-37-.185-.513,0-1.4-1-1.463-1.193l-.231.074a29.658,29.658,0,0,1-11.611,1.89c-.325,0-.678,0-1.049-.005-1.012-.009-1.959-.021-2.875-.032-1.893-.023-3.851-.047-6.419-.055h-.338c-.482,0-.98,0-1.447.009h-.03c-.482,0-.98.009-1.471.009a19.554,19.554,0,0,1-7.9-1.211,20.424,20.424,0,0,0-5.324-.479,30.116,30.116,0,0,0-3.131.136,25.464,25.464,0,0,0-4.775,1.12c-.336.1-.681.209-1.021.31-.262-.1-.578-.238-.913-.385l-.006,0a9.676,9.676,0,0,0-3.592-1.063h-.006c-8.4,0-16.695.174-24.717.34-3.173.066-6.769.141-10.279.2.222.223.445.445.693.691l.011.011c.454.451.923.917,1.361,1.371-.737-.043-1.513-.081-2.336-.12l-.037,0a68.893,68.893,0,0,1-8.772-.776,47.986,47.986,0,0,0-9.545-.986,62.309,62.309,0,0,0-9.313.784c-.6.09-1.2.194-1.774.3h-.005a25.263,25.263,0,0,1-4.387.51H-44.3c-19.3-.046-39.257-.093-58.666-.329a42.526,42.526,0,0,1-5-.465,37.109,37.109,0,0,0-4.711-.432c-.372,0-.728.015-1.057.043-6.217.535-12.549.8-19.356.8-5.2,0-10.7-.143-17.852-.465-1.018-.046-2.066-.1-3.079-.162-2.208-.125-4.492-.254-6.593-.254a34.244,34.244,0,0,0-3.485.155,98.843,98.843,0,0,1-10.309.479c-2.519,0-5.051-.064-7.5-.127h-.073c-2.46-.062-5-.126-7.581-.126-.927,0-1.789.008-2.635.024-.2,0-.412.005-.617.005-1.9,0-3.9-.155-5.673-.292l-.11-.009c-1.884-.146-3.663-.283-5.359-.283a22.412,22.412,0,0,0-2.25.1,153.746,153.746,0,0,1-15.881.738c-3.47,0-6.931-.077-10.595-.159-2.053-.046-4.173-.093-6.412-.129-2.807-.044-5.7-.343-8.762-.66-2.255-.233-4.586-.474-6.9-.607-.012,0-.094.027-.225.07-.251.083-.717.238-1.263.39a10.662,10.662,0,0,1-2.7.46h-.106a57.052,57.052,0,0,1-6.949-.755,2.67,2.67,0,0,0-.469-.032,4.994,4.994,0,0,0-.685.045,115.44,115.44,0,0,1-17.771,1.4,138.6,138.6,0,0,1-15.771-.969,2.326,2.326,0,0,0-.253-.013,8.666,8.666,0,0,0-1.676.258,15.076,15.076,0,0,1-1.758.306c-4.412.42-8.071.742-11.636.742a38.713,38.713,0,0,1-11.423-1.531c-1.427.412-2.861.832-4.247,1.238l-2.636.77c-.256-.334-.523-.672-.782-1l-.035-.045c-.248-.313-.53-.668-.8-1.019-1.989.1-3.858.122-5.666.144-4.883.06-9.1.112-13.287,1.613a1.651,1.651,0,0,1-.421.032,19.872,19.872,0,0,1-3.37-.314c-.255-1.136-2.082-1.293-4.02-1.293-.471,0-.966.01-1.363.019h-.062c-.458.009-.891.017-1.306.017-2.015,0-4.019-.007-6.126-.007-7.2,0-13.652.028-21.118.061h-1.95Zm-558.824-.038c.1.551.187,1.1.289,1.7q.126.749.254,1.5l8.14-.484,8.14-.484-4.81-.639-.059-.008C-945.427,1369.091-949.479,1368.552-953.462,1368.025Zm454.709,2.313a55.664,55.664,0,0,0-9.006.7l1.432.01.253,0c7.037.048,14.314.1,21.478.143-.937-.073-1.857-.148-2.749-.221l-.087-.007C-491.364,1370.642-495.077,1370.339-498.753,1370.339Zm-115.325-.327a26.331,26.331,0,0,0-2.922.234h-.008c-.705.081-1.5.173-2.411.25-.234.019-.6.234-.6.349,0,.044.059.07.168.073,1.763.05,3.833.057,5.835.064,1.385.005,2.817.01,4.134.029A9.3,9.3,0,0,0-614.078,1370.011Zm166.308-1.743c-3.355.057-6.69.116-10.389.183l-5.919.106,2.941.534.376.068q1.533.279,3.067.557c-1.666.04-3.358.079-5.024.117l-1.6.036c-2.731.062-5.556.126-8.329.194l.724.081a100.1,100.1,0,0,0,10.878.814c.977,0,1.918-.032,2.8-.1a26.613,26.613,0,0,0,7.136-1.587l.006,0C-450.067,1368.926-448.987,1368.564-447.771,1368.268Zm-143.83,1.794c-1.634,0-4.1.057-5.164.12a.271.271,0,0,0-.277.284.372.372,0,0,0,.358.369c.423.014,1.094.022,1.889.022,1.337,0,3.057-.022,3.885-.071a.659.659,0,0,0,.575-.542c0-.1-.073-.165-.2-.168C-590.8,1370.066-591.154,1370.062-591.6,1370.062Zm-65.116-.444c-4.074,0-8.264.235-12.316.462l-.033,0c-1.451.081-2.952.165-4.406.236a.426.426,0,0,0-.318.146.406.406,0,0,1-.241.135c11.547.091,23.326.169,33.718.238l-.336-.039a137,137,0,0,0-15.657-1.18Zm-240.959-.483-15.462.329-15.318.326c.018.1.033.208.048.31v.005c.014.1.029.205.047.308,7.067-.123,14.124-.242,21.956-.374l2.683-.045,5.693-.1C-897.9,1369.631-897.782,1369.382-897.675,1369.134Zm192.275.682c-.2,0-.325.121-.326.238,0,.084.065.183.254.186,2.26.05,5.186.062,7.767.072l1.776.007c.1,0,.159-.057.16-.11s-.037-.09-.124-.093l-2.025-.071-.288-.01c-2.379-.086-5.075-.183-7.186-.219Zm-29.013-.017-1.081,0c-.137,0-.2.072-.2.143s.073.162.214.164c1.882.033,4.373.055,6.344.055l1.208,0a.283.283,0,0,0,.3-.206c0-.061-.056-.1-.15-.1C-729.7,1369.822-732.311,1369.8-734.414,1369.8Zm-32.486-.36-.044.511c4.168.027,8.326.058,12.939.092l1.22.009,8.548.061c.005-.057.011-.114.016-.172v-.006c.011-.109.022-.222.027-.332l-5.733-.041C-755.153,1369.525-761.078,1369.484-766.9,1369.439Zm-10.858-1.156-2.5.858-2.287.786c1.247.08,2.241.12,3.038.12,1.7,0,2.552-.179,2.677-.564C-776.734,1369.2-777.039,1368.807-777.757,1368.283Zm-33.58.984a29.474,29.474,0,0,0-5,.443l5.157.037c2.014.015,4.357.032,6.685.047l-.335-.037A59.9,59.9,0,0,0-811.338,1369.267Zm-174-308.164c-6.622,0-12.712.121-18.618.37l18.2.148,9.1.075q13.214.109,26.427.216C-961.986,1061.486-973.521,1061.1-985.342,1061.1Zm134.112-.04c-4.771,0-9.484.213-14.475.437h-.024c-1.072.048-2.179.1-3.282.146l10.336.074,21.609.159A110.549,110.549,0,0,0-851.23,1061.062Zm-42.14-.212-.343,0a.409.409,0,0,0-.393.415.318.318,0,0,0,.3.352c1.522.1,4.8.183,6.5.183.157,0,.3,0,.434,0a.368.368,0,0,0,.359-.377.328.328,0,0,0-.308-.362C-888.347,1060.956-891.652,1060.85-893.37,1060.85Zm104.5-.23a97.809,97.809,0,0,0-13.457.79c5.946.041,11.983.085,17.863.128l1.767.013,10.245.075c.058-.311.115-.616.179-.926-1.321.034-2.684.049-4.163.049-2.13,0-4.226-.033-6.252-.064h-.075C-784.761,1060.653-786.83,1060.62-788.866,1060.62Zm108.948-.51c-12.625,0-23.738.4-33.972,1.219l5.2.035.754.005h.015c11.249.076,22.881.155,34.313.155,14.4,0,26.415-.122,37.805-.384l-2.372-.081h-.006C-651.858,1060.592-666,1060.11-679.918,1060.11Zm-357.419.275c-6.583,0-13.416.244-20.312.725,12.766.112,26.674.231,42.518.364A208.709,208.709,0,0,0-1037.338,1060.385Zm268.7-.041c-.045.13-.092.259-.139.388s-.091.25-.135.376c11.009.08,22.61.17,31.932.243l4.128.032,8.386.065c.005-.093.009-.186.013-.28v-.02c.007-.153.014-.312.025-.468C-737.542,1060.577-752,1060.466-768.641,1060.343Zm160.993.6c-.39,0-.784,0-1.17,0-.133,0-.181.082-.182.152a.22.22,0,0,0,.233.207c1.743.038,4.119.063,6.054.063l1.03,0c.135,0,.2-.084.2-.165a.212.212,0,0,0-.228-.2C-603.376,1060.972-605.7,1060.948-607.648,1060.948ZM-3.533,1058.3l-3.64,0,.019.156c.03.249.065.531.1.8,5.2.276,10.764.4,17.515.4,4.363,0,8.621-.05,13.128-.1l1.117-.013c4.263-.05,8.641-.051,12.874-.052,6.49,0,13.2,0,19.653-.179,3.2-.088,6.343-.093,9.379-.1,7.275-.013,14.145-.025,21.263-1.093-6.363-.462-11.583-.678-16.427-.678-.74,0-1.485.005-2.213.016-4.388.065-8.811.231-13.089.392-4.878.183-9.922.373-14.928.412-5.64.044-11.733.065-19.178.065-4.291,0-8.654-.007-12.873-.013H9.133C5.093,1058.308.788,1058.3-3.533,1058.3Zm-39.045-.5a49.336,49.336,0,0,0-9.021.812c1.156.1,2.366.232,3.433.346h.006a80.669,80.669,0,0,0,8.328.6,21.666,21.666,0,0,0,7.224-1.054A82.526,82.526,0,0,0-42.578,1057.8Zm-42.347-.212a20.327,20.327,0,0,0-7.613,1.221l3.88.03.426,0c5.431.043,11.047.087,16.57.133-.675-.094-1.355-.193-2.074-.3A80.521,80.521,0,0,0-84.926,1057.589Zm-54.32.119c0,.041-.009.082-.014.123l-.007.062c-.02.174-.04.351-.05.524l12.728.1,1.519.012,3.3.026c.011-.1.021-.207.031-.311l0-.027c.012-.127.024-.25.037-.374l-8.764-.069h-.01Zm253.895-.224-7.894.169-.109,0q-5.89.126-11.78.253a89.693,89.693,0,0,0,9.545.59A49.575,49.575,0,0,0,114.648,1057.484Zm28-.434c-3.9,0-7.83.16-11.63.315-3.419.14-6.953.284-10.508.315,5.427.544,10.154.81,14.451.81a78.239,78.239,0,0,0,14.613-1.247C147.4,1057.114,145.134,1057.05,142.644,1057.05ZM184,1056.3a4.877,4.877,0,0,0-1.26.137c-.085.064.052.386.163.645l.005.012a2.231,2.231,0,0,1,.094.241.94.94,0,0,1-.038.322c-.038.177-.076.356-.024.43a.078.078,0,0,0,.055.033c.05.005.152.009.274.009a7.885,7.885,0,0,0,2.288-.237c.117-.286-.794-1.264-1.118-1.536A1.074,1.074,0,0,0,184,1056.3Zm-28.775,1.237h0c-.085,0-.123.05-.124.1s.049.12.146.122c2.92.062,6.261.11,8.937.129.085,0,.115-.049.115-.091a.146.146,0,0,0-.16-.13c-2.913-.057-6.244-.106-8.911-.13Zm80,327.462h-5.147c.167-.324.334-.655.5-.974l.007-.014c.158-.312.337-.666.513-1.008,1.283,0,2.672.006,4.131.007V1385ZM-56.8,1385H-78.28a7.127,7.127,0,0,0,1.384-.474,5.944,5.944,0,0,1,2.115-.586c.6-.021,1.2-.031,1.848-.031,1.81,0,3.551.082,5.393.169h.021l.056,0c.64.03,1.3.062,1.968.089,2.52.1,4.873.381,7.147.649h.006l.09.01q.724.085,1.447.168Zm-516.069,0h-11.065a26.262,26.262,0,0,1,5.67-.894,22.868,22.868,0,0,1,5.4.892Zm-769.535,0h-13.662a49.652,49.652,0,0,1,5.332-.326h.21c2.575,0,5.424.16,8.12.324Zm1368.164-.311a13.542,13.542,0,0,1-3.149-.568c-.24-.065-.427-.115-.528-.134-.212-.039-.355-.173-.346-.325.008-.133.149-.3.522-.321,2.023-.135,4.638-.212,7.167-.286,1.38-.041,2.683-.079,3.89-.126-.892.174-1.954.469-3.079.782l-.009,0a30.893,30.893,0,0,1-4.06.953A3.516,3.516,0,0,1,25.756,1384.689Zm88.182-1.387h0c-3.911-.008-8.6-.1-11.841-.184-.2-.005-.3-.12-.295-.225s.1-.227.317-.227c2.6.009,5.6.065,8.5.12h.06c1.148.021,2.449.046,3.658.066-.136.026-.142.123-.147.217C114.177,1383.184,114.171,1383.3,113.938,1383.3Zm-1747.227-.516h0c-4.488-.042-9.5-.116-13.4-.2-.138,0-.2-.073-.2-.14s.082-.158.23-.158c4.361.044,9.374.117,13.411.2.136,0,.2.07.2.137S-1633.135,1382.786-1633.288,1382.786Zm26.183-.152h-.2a.333.333,0,0,1-.255-.077.343.343,0,0,1-.036-.27c.016-.137.032-.279-.143-.32.917-.011,1.9-.026,2.771-.039,2.1-.031,4.261-.064,6.155-.064l.94,0c.254,0,.408.152.41.3,0,.095-.069.2-.27.205l-.94.036h-.01C-1601.185,1382.5-1604.617,1382.634-1607.106,1382.634Zm47.066-.509h0c-7.869-.079-15.513-.195-20.54-.278-.125,0-.19-.068-.189-.132s.059-.121.185-.121c5.739.06,12.651.154,20.544.278.134,0,.194.069.193.13S-1559.911,1382.126-1560.04,1382.126Zm47.034-.072c-6.411,0-12.681-.214-19.732-.672,1.322-.014,2.556-.021,3.75-.028,2.44-.014,4.745-.027,7.526-.1,2.64-.068,5.669-.186,8.6-.3,1.672-.065,3.4-.132,5.043-.189l-.085.065-.013.01a5.063,5.063,0,0,1-2.421,1.2C-1511.219,1382.049-1512.116,1382.053-1513.006,1382.053Zm13.768-.358q-.716,0-1.434,0a29.46,29.46,0,0,1-4.957-.591h-.006c-.7-.125-1.364-.242-2.023-.336l11.026.125,2.174.025q7.121.081,14.26.161a.067.067,0,0,0-.052.031c-.012.027.01.067.032.106s.047.083.031.111-.047.033-.106.034q-1.844.043-3.688.089C-1488.947,1381.568-1494.082,1381.7-1499.238,1381.7Zm83.281-.252h0c-6.416-.056-11.5-.1-16-.144.006-.073.007-.147.008-.219a2.324,2.324,0,0,1,.014-.275c4.5.042,9.439.087,16.007.144,0,.1-.008.2-.016.3v.006c-.005.063-.01.128-.013.191Zm-27.812-.246c-3.753-.011-7.977-.05-11.3-.1-.14,0-.2-.075-.2-.141s.075-.147.216-.147c2.574.013,7.5.044,11.549.107.08,0,.123.025.123.066C-1443.382,1381.061-1443.57,1381.2-1443.769,1381.2Zm276.651-.225h-.327a.47.47,0,0,1-.509-.377c0-.131.1-.214.274-.222,2.052-.1,6.322-.312,8.99-.312h.053a.321.321,0,0,1,.254.08.372.372,0,0,1,.023.3c-.026.152-.051.3.119.339-.945.02-1.949.048-3.013.078h-.026C-1163.32,1380.914-1165.431,1380.973-1167.119,1380.973Zm-228.055-.11c-1.541,0-3.58-.022-6.061-.064-.151,0-.23-.092-.23-.179s.062-.151.2-.153c1.814-.04,4.689-.085,6.822-.085.245,0,.61,0,.943,0,.17,0,.23.09.23.173a.352.352,0,0,1-.378.3C-1394.079,1380.859-1394.578,1380.862-1395.174,1380.862Zm19.945-.036c-2.342,0-5.007-.024-6.79-.06-.14,0-.2-.083-.2-.156s.078-.162.224-.162l.848,0c1.93,0,4.544.025,6.66.064.144,0,.209.084.208.159s-.069.156-.216.156Zm832.541-.18c-15.818,0-31.614-.359-46.951-1.069,1.668,0,3.592.027,5.629.055h.04c2.145.03,4.364.06,6.383.06,1.627,0,2.935-.02,4-.061,1.5-.058,3.236-.216,4.915-.368h.005c2.114-.192,4.3-.391,6.023-.391a12.05,12.05,0,0,1,2.075.144,37.194,37.194,0,0,0,6.753.569c1.035,0,2.06-.03,3.053-.059h.015c1-.029,2.028-.058,3.107-.058.977,0,1.879.025,2.756.075,3.271.19,6.039.216,8.315.216,1.086,0,2.18-.007,3.239-.013h.454c.979-.006,1.99-.012,3.038-.012h.351c6.033.006,11.355.177,16.272.524C-523.206,1380.515-533.122,1380.646-542.687,1380.646Zm-578.948-.185c-4.87,0-10.835-.044-15.566-.107-.182,0-.264-.1-.263-.188s.1-.2.293-.2c4.331,0,10.142.04,15.544.106.19,0,.275.1.275.195S-1121.452,1380.461-1121.636,1380.461Zm-210.135-.007c-4.05-.015-8.843-.053-13.15-.1-.138,0-.223-.081-.222-.153,0-.049.042-.1.159-.1,3.761.011,8.563.049,13.176.1.136,0,.209.074.209.141S-1331.652,1380.453-1331.77,1380.453Zm903.987-.052c-7.433-.052-15-.1-22.1-.147l-7.161-.047-.849-.788c-.382-.354-.815-.755-1.23-1.144a28.669,28.669,0,0,1,4.228-.456c2.256,0,2.53.775,3.078,2.32l.025.073,4.84-.786.858-.14,7.738-1.258,4.165.933.645.145.168.038q2.8.627,5.6,1.255Zm-607.323-.085h0c-4.052-.027-8.178-.053-12.168-.078l-.893-.006-6.919-.043c.012-.139.019-.282.026-.419l0-.074,8.247.052,5.732.036,5.995.038c-.009.1-.013.212-.016.316,0,.062,0,.119-.006.177Zm564.462-.129h0c-1.778,0-4.737-.085-6.913-.162-.138,0-.186-.084-.185-.15,0-.09.087-.185.243-.185.447,0,.956,0,1.5,0,2.28,0,4.409.021,5.694.056.107,0,.166.041.165.108C-470.145,1379.978-470.38,1380.188-470.644,1380.188Zm343.42-.016h0l-3.519-.025-.587,0c-9.071-.064-18.45-.131-27.578-.189,0-.557.493-1.124,1.343-1.555a7.445,7.445,0,0,1,3.3-.7,9.415,9.415,0,0,1,2.217.267A42.16,42.16,0,0,0-141.5,1379c.561,0,1.12,0,1.66-.005h.034c.618,0,1.176-.006,1.759-.006.915,0,1.7.007,2.468.021,1.889.037,3.495.106,5.048.174h.031c1.2.052,2.431.105,3.809.145a4.675,4.675,0,0,0-.364.563c-.05.086-.1.181-.164.275Zm-1156.155-.066c-2,0-4.321-.04-4.985-.053-.136,0-.2-.086-.2-.16s.06-.148.189-.15c1.358-.027,3.538-.058,5.215-.058.391,0,.761,0,1.1.005a.23.23,0,0,1,.256.211c0,.093-.075.193-.24.2C-1282.412,1380.1-1282.862,1380.106-1283.378,1380.106Zm557.557-.125a33.244,33.244,0,0,1-5.612-.565c4.538-.251,9.21-.513,12.621-.7A20.457,20.457,0,0,1-725.82,1379.981Zm956.447-.229c-1.228,0-2.358-.039-3.453-.12-3.813-.281-7.58-.406-12.213-.406-2.413,0-4.786.033-7.3.068l-.2,0c-1.594.022-3.242.044-4.929.058a2.7,2.7,0,0,0-.176-.494,3.426,3.426,0,0,1-.155-.4c1.025-.08,2.084-.195,3.109-.3h.007a58.406,58.406,0,0,1,6.194-.444h.152c6.369.035,12.784.148,18.989.257h.018l4.546.079v1.561C233.876,1379.679,232.28,1379.752,230.627,1379.752Zm-503.455-.016c-6.849-.039-13.885-.09-20.092-.135l-.241,0c-4.489-.033-9.13-.066-13.7-.1l1.372-.768.006,0c.9-.5,1.823-1.019,2.721-1.53,1.351.066,2.559.077,3.726.088h.008c3.269.03,5.85.053,8.5,1.344a12.055,12.055,0,0,0,2.612.208c.565.016,1.146.031,1.6.062.185.013.361.019.522.019a2.114,2.114,0,0,0,1.89-.7l.051-.057a1.622,1.622,0,0,1,1.477-.638,9.957,9.957,0,0,1,2.186.33c1.329.317,3.114.593,4.841.86l.032.005c.856.133,1.665.258,2.386.383.1.017.153.047.174.091.031.065-.019.152-.067.237s-.092.162-.07.224a.124.124,0,0,0,.076.071Zm356.236-.151c-1.432,0-3.044-.067-5.226-.216,2.006-.243,3.832-.541,5.6-.83a60.511,60.511,0,0,1,10.112-1.064,38.619,38.619,0,0,1,4.961.323c-.058.2-.1.409-.146.594a5.909,5.909,0,0,1-.287,1,36.341,36.341,0,0,0-5.305-.757,2.871,2.871,0,0,0-.44.028A53.7,53.7,0,0,1,83.407,1379.585Zm-1755.81-.531h0c-1.667-.041-3.423-.06-5.122-.079h-.04c-2.419-.027-4.921-.054-7.214-.144v-.6c2.627.03,5.26.072,7.805.113l.155,0c1.447.023,2.993.048,4.5.07l-.011.109v.006a4.94,4.94,0,0,1-.069.52Zm37.617-.008h0l0,0a7.652,7.652,0,0,1,4-1.087,20.268,20.268,0,0,1,2.679.243l.208.028a24.441,24.441,0,0,0,3.377.271,17.176,17.176,0,0,0,2.062-.123c-.251.054-.492.12-.747.189a7.723,7.723,0,0,1-1.8.332c-2.235.078-4.485.1-6.66.116h-.029C-1632.711,1379.022-1633.755,1379.031-1634.786,1379.046Zm1383.01-.052c-2.256,0-5.168-.021-7.42-.054-.118,0-.17-.065-.169-.125s.064-.131.184-.131h.623c1.989,0,4.661.021,7.149.055.125,0,.189.072.188.14s-.052.116-.165.116Zm427.723-.114v0a15.3,15.3,0,0,1,6.47-1.159c1.195,0,2.42.065,3.716.134l.032,0,1.025.053,1.9.091.305.015h.017c2.844.136,4.9.234,7.8.436.108.008.145.053.144.093,0,.061-.086.124-.224.126-4.129.058-8.429.095-12.588.13C181.862,1378.822,178.819,1378.848,175.947,1378.88Zm-1767.738-.048a67.887,67.887,0,0,1-7.011-.461,23.785,23.785,0,0,1,6.589-.879c1.9,0,3.865.178,6.137.383h.01l.092.008,1.255.112A28.038,28.038,0,0,1-1591.791,1378.832Zm-18.652-.117h-.054c-1.19-.054-2.548-.248-3.861-.436-.983-.14-2-.286-2.934-.37.2-.187.409-.367.612-.541l.019-.016c.132-.113.268-.229.4-.346.915.126,1.839.25,2.734.369l.129.017c1.389.185,2.826.377,4.278.586a.946.946,0,0,0-.592.364A.907.907,0,0,1-1610.443,1378.715Zm75.99-.075c-.322,0-.8-.337-.814-.528-.005-.058.033-.1.111-.111,1.282-.241,4.72-.751,5.979-.849h.039c.38,0,.94.422.961.662.006.071-.039.118-.132.135-1.119.207-4.681.588-6.113.692Zm-128.372-2.878v0a15.749,15.749,0,0,1,6.835-1.508,32.089,32.089,0,0,1,7.14.979l-2.192.084C-1655.028,1375.469-1658.928,1375.619-1662.825,1375.762Zm-8.394-.076h0c-4.459-.067-9.021-.138-13.559-.212v-1.094c.616-.007,1.219-.01,1.794-.01,3.875,0,7.935.145,11.862.284l-.005.073c-.031.349-.057.65-.09.958Zm629.368-321.673h0q-.02-.1-.041-.195c-.031-.146-.066-.312-.094-.473,4.757-.121,8.94-.229,12.788-.332.042.219.088.465.128.7l-6.872.159Zm-173.767-1.766a3.463,3.463,0,0,1-1.017-.115,15.765,15.765,0,0,0-7.585-1.708c-.775,0-1.649.031-2.674.094-3.018.189-6.157.28-9.6.28-7.31,0-14.766-.427-21.976-.839l-1.067-.061c-6.469-.371-13.315-.39-19.936-.408-1.679,0-3.266-.009-4.854-.019-1.075-.007-2.2-.01-3.429-.01-1.56,0-3.081.005-4.63.011h-.383c-1.364,0-2.775.009-4.153.009-2.579,0-6.013-.014-9.706-.121-1.576-.046-3.429-.094-5.226-.094a70.551,70.551,0,0,0-10.967.792,59.621,59.621,0,0,1-8.788.627,79.95,79.95,0,0,1-9.755-.629,120.892,120.892,0,0,0-14.582-.625h-2.827c-.734,0-1.6,0-2.5-.005-6.709-.036-13.552-.037-20.169-.038h-.149c-6.966,0-14.169,0-21.285-.044-32.434-.193-65.361-.546-97.2-.888l-.148,0-.356,0c-20.489-.22-37.734-.407-55.3-.607-.01-.21-.031-.422-.051-.627v-.011c-.006-.059-.012-.118-.018-.177,2.789,0,5.7.013,8.262.021,4,.012,8.54.025,12.9.025,1.995,0,3.817,0,5.57-.008,12.692-.042,25.644-.141,36.787-.231.442,0,.892-.04,1.326-.075s.9-.073,1.337-.073c.127,0,.25,0,.364.009,16.495.871,33.234.882,49.422.892h.057c6.31,0,12.834.008,19.272.063,4.251.036,8.568.076,12.743.115l.335,0h.035c15.589.144,31.709.292,47.636.3h.631c23.816,0,47.939-.138,71.267-.271l12.643-.071c1-.006,2.01-.008,3.1-.008,1.939,0,3.883.008,5.764.016h.034c1.69.007,3.792.017,5.783.017,6.337,0,13.178-.08,20.266-.665,6.786-.56,13.557-.635,19.285-.635,2.145,0,4.336.012,6.455.024h.173c2.155.012,4.382.024,6.589.024,1.105,0,2.126,0,3.122-.009.793-.005,1.625-.007,2.471-.007,8.75,0,17.286.275,26.324.567h.046c2.4.077,4.981.115,7.9.115,4.2,0,8.534-.079,12.724-.155h.029c3.293-.06,6.7-.122,9.955-.143,3.871-.025,7.936-.036,13.178-.036,2.627,0,5.4,0,7.621.005h.366c3.225,0,5.98.006,8.672.006l27.841,0h58.821c17.687,0,35.631.015,52.984.029,14.169.012,30.228.025,45.816.028,8.953,0,18.036.057,26.82.111h.04c3.383.021,6.694.041,10,.058.382,0,.791.028,1.187.054h.015c.407.027.789.052,1.142.052a4.273,4.273,0,0,0,.651-.042,70.474,70.474,0,0,1,11.005-.782c2.9,0,5.728.122,8.718.252l.24.01h.01c2.833.123,6.045.263,9.444.263.936,0,1.866-.011,2.765-.032.122,0,.249,0,.388,0,.412,0,.846.014,1.229.027h.035c.411.014.837.028,1.241.028,1.489,0,2.953-.179,3.584-1.474a4.9,4.9,0,0,1,1.876-.2c1.927,0,4.178.3,4.716,1.151a1.783,1.783,0,0,0,1.425.438c.786,0,1.682-.224,1.873-.653a.6.6,0,0,0-.187-.65,36.226,36.226,0,0,1,5.5.527,28.536,28.536,0,0,0,4.635.444,25.668,25.668,0,0,0,3.509-.258,26.932,26.932,0,0,1,3.631-.205c2,0,4.2.131,6.327.258h.011l.032,0c1.36.081,2.646.157,3.874.2,1.426.049,3.023.073,4.881.073,1.832,0,3.716-.023,5.538-.045,1.238-.015,2.519-.03,3.762-.038h.294c1.005,0,2,.033,2.869.062h.013l.075,0h.027c.919.03,1.786.059,2.636.059a11.915,11.915,0,0,0,6.152-1.256,102.678,102.678,0,0,0,15.378,1.164,136.742,136.742,0,0,0,19.544-1.556c.358.117.732.271,1.128.433l.006,0a9.1,9.1,0,0,0,3.389.887c4.265.024,8.74.036,13.3.036,9.594,0,20.017-.053,32.8-.168a52.958,52.958,0,0,0,7.054-.681l.29-.041.43-.061.347-.049.071-.01a25.236,25.236,0,0,1,3.439-.333,6.6,6.6,0,0,1,3.207.712c.865-.053,1.742-.079,2.678-.079,2.549,0,5.059.2,7.272.373l.162.013c2.352.185,4.573.36,6.8.36a26.3,26.3,0,0,0,7.869-1.048c1.566.126,3.174.288,4.877.46l.045,0c3.518.355,7.154.721,10.427.763,14.878.195,28.842.306,43.625.424l.912.007c4.949.04,10.067.08,15.2.125h.266c1.63,0,3.176-.134,4.671-.264s3.048-.264,4.69-.264a26.786,26.786,0,0,1,4.746.412,45.714,45.714,0,0,0,7.792.5c1.849,0,3.751-.046,5.591-.09l.133,0c.85-.02,1.652-.039,2.453-.054,1.7-.032,3.424-.217,5.247-.412a61.6,61.6,0,0,1,6.583-.462h.009a22.315,22.315,0,0,1,3.619.451h.006a29.476,29.476,0,0,0,4.939.578c10.967.05,22.254.091,33.17.131l.538,0h.183c12.1.044,24.608.089,36.8.147,2.191.011,4.435.1,6.6.183h.022c2.3.089,4.674.182,6.962.182,1.725,0,3.244-.052,4.644-.158,2.783-.213,5.6-.308,9.147-.308,1.534,0,3.033.016,4.62.034h.124c.837.009,1.7.019,2.57.025,5.434.039,11.172.058,17.541.058,8.615,0,17.356-.035,25.81-.069h.3c6.833-.027,13.9-.056,20.9-.065,5.44-.008,10.876-.022,16.134-.036h.516c7.491-.02,15.981-.043,24.519-.045,1.554,0,3.1.018,4.594.036h.033c1.446.017,2.942.035,4.386.035,7.056,0,12.806-.435,17.937-2.558a3.987,3.987,0,0,0,4.06,2.562,13.075,13.075,0,0,0,2.647-.318,18.369,18.369,0,0,0,2.661-.806,12.22,12.22,0,0,1,3.649-.882c.392-.027.738-.04,1.027-.04.772,0,1.182.1,1.219.283.078.4-1.482,1.082-2.156,1.358,1.2.02,2.413.043,3.581.065,3.017.058,5.867.112,8.744.112a101.929,101.929,0,0,0,18.528-1.352,81.618,81.618,0,0,0,16.348,1.37c2.956,0,5.883-.08,8.982-.165h.023c1.618-.045,3.451-.095,5.237-.129,3.577-.067,7.341-.1,11.845-.1,3.623,0,7.289.021,10.835.041h.129c2.9.017,5.907.034,8.888.04,4.422.01,8.771.04,12.976.069,4.991.035,10.153.07,15.406.07l2.285,0c4.715-.009,9.541-.06,14.209-.11h.077c5.21-.055,10.6-.112,15.9-.112h1.347c7.106.015,14.372.129,21.4.239h.089c3.376.053,6.868.107,10.285.15-.378.594-.765,1.2-1.139,1.776l-.02.032-.055.086-.6.933c-2.039-.021-4.134-.031-6.16-.04h-.061c-4.391-.02-8.931-.041-13.3-.181a22.48,22.48,0,0,1-4.1-.669c-.579-.132-1.125-.256-1.582-.334a34.4,34.4,0,0,0-4.516-.4,3.028,3.028,0,0,0-.945.091,15.447,15.447,0,0,1-6.606,1.28c-.271,0-.559,0-.855-.011-5.372-.142-10.712-.294-15.876-.441l-.163,0c-4.749-.135-9.66-.276-14.533-.406-.69-.018-1.411-.043-2.047-.066h-.028c-1.322-.046-2.69-.094-4.012-.094a35.914,35.914,0,0,0-3.738.171,34.8,34.8,0,0,1-3.774.231c-1.083,0-2.19-.063-3.885-.167-.585-.035-1.187-.053-1.842-.053-1.479,0-2.964.09-4.537.185-1.3.079-2.645.161-4.1.2-.869.022-1.72.069-2.543.113h-.015c-1.135.062-2.207.121-3.315.121a20,20,0,0,1-5.542-.7,21,21,0,0,0-4.825-.432,45.957,45.957,0,0,0-7.133.524,48.611,48.611,0,0,1-9.057.773c-2.168,0-4.246-.1-6.445-.2h-.022l-.1-.005c-2.049-.1-4.37-.21-6.736-.21-1.176,0-2.273.026-3.352.08-1.037.052-2.094.077-3.231.077-2.349,0-4.6-.108-6.989-.223h-.022c-.984-.047-2-.1-3.024-.136-1.159-.046-2.236-.068-3.294-.068a69.983,69.983,0,0,0-9.443.639,7.3,7.3,0,0,1-.938.054,30.842,30.842,0,0,1-3.73-.345l-.082-.011h-.009a29.072,29.072,0,0,0-3.5-.334,4.876,4.876,0,0,0-1.068.1,39.049,39.049,0,0,1-9.64,1.3c-.175,0-.355,0-.535,0-2.055-.027-4.132-.051-6.14-.074l-.168,0c-5.343-.061-10.869-.125-16.208-.247-2.2-.05-4.554-.21-6.832-.365l-.029,0c-1.751-.12-3.405-.232-4.855-.285-1.78-.067-3.03-.1-4.181-.1-1.362,0-2.595.041-4,.132-9.55.631-16.855.913-23.688.913-7.22,0-14.106-.324-21.052-.992-.193-.018-.4-.028-.615-.028a18.508,18.508,0,0,0-3.147.388h-.006a24.68,24.68,0,0,1-3.252.431h-.022c-3.513.151-7.146.308-10.7.308a92.373,92.373,0,0,1-12.594-.8,43,43,0,0,0-5.684-.494,12.85,12.85,0,0,0-5.961,1.229,7.974,7.974,0,0,1-2.363.2c-.363,0-.74,0-1.072-.008h-.076c-.348,0-.677-.007-.987-.007h-.612c-3.581,0-7.225-.112-10.748-.221h-.01l-.068,0h-.006c-3.542-.11-7.205-.224-10.815-.224a110.375,110.375,0,0,0-12.35.6,140.508,140.508,0,0,0-18.544-.986c-2.118,0-4.277.02-6.365.038h-.116c-1.659.015-3.374.031-5.06.036-10.59.031-20.251.288-29.537.787-.506.027-1.027.041-1.549.041-1.712,0-3.292-.142-4.821-.28l-.032,0c-1.51-.136-3.072-.277-4.7-.277-.874,0-1.7.039-2.522.12-1.894.188-3.937.275-6.432.275-1.667,0-3.373-.039-5.022-.077h-.017c-1.1-.026-2.354-.054-3.56-.068-1.66-.02-3.348-.029-4.981-.038h-.056c-3.325-.019-6.762-.038-10.147-.142a19.133,19.133,0,0,1-2.788-.363c-.471-.085-.958-.173-1.434-.238l-.418-.058a33.158,33.158,0,0,0-3.964-.387,4.349,4.349,0,0,0-.907.075,40.108,40.108,0,0,1-9.149.948c-2.066,0-4.155-.106-6.366-.217h-.016c-1.019-.052-2.072-.1-3.179-.15-1.212-.05-2.364-.078-3.477-.1a52.382,52.382,0,0,1-10.436-.951,1.589,1.589,0,0,0-.331-.029,12.3,12.3,0,0,0-1.869.253c-.454.083-.922.168-1.314.213-.661.076-1.367.164-1.989.242a69.968,69.968,0,0,1-6.972.636c-6.018.14-12.163.184-18.106.226-2.344.016-5,.035-7.56.06-1.272.012-2.547.045-3.781.077-1.547.04-3.148.081-4.733.081-1.709,0-3.212-.049-4.594-.151-2.072-.151-4.094-.287-6.066-.287a25.015,25.015,0,0,0-6.4.7,7.078,7.078,0,0,1-1.759.268,2.69,2.69,0,0,1-1.9-.717,2.375,2.375,0,0,0-1.64-.656l-.548,0c-3.286,0-6.285.215-9.185.422-2.263.162-4.6.329-7.06.394-.274.007-.562.011-.858.011-1.683,0-3.359-.123-4.98-.241l-.831-.06c-2.018-.144-4.068-.316-6.051-.483l-.051,0h-.006c-5.09-.428-10.352-.871-15.578-.871-.728,0-1.455.009-2.16.026-5.213.128-10.3.422-15.22.7l-3.036.174c-1.728.1-3.545.145-5.556.145-2.58,0-5.154-.078-7.643-.153h-.04c-2.471-.074-5.026-.151-7.551-.151a82.38,82.38,0,0,0-8.913.426,20.968,20.968,0,0,1-2.172.1,24.751,24.751,0,0,1-5.308-.514,23.826,23.826,0,0,0-5.683-.63,21.191,21.191,0,0,0-6.3.829,10.642,10.642,0,0,1-3.346.716,6.793,6.793,0,0,1-2.025-.37,14.861,14.861,0,0,0-3.208-.626c-.841.354-1.743.726-2.615,1.085l-.072.03c-.911.375-1.943.8-2.883,1.2a26.249,26.249,0,0,1-2.552-.866,12.026,12.026,0,0,0-4.906-1.028,22.273,22.273,0,0,0-2.622.174l-.288.034a34.244,34.244,0,0,1-3.962.314c-2.127,0-3.474-.447-4.118-1.366-1.921.418-3.595.776-5.6,1.2l-.963.2-.066.014c-1.616.344-3.287.7-4.918,1.028-.261-.106-.551-.246-.857-.395a7.915,7.915,0,0,0-3.007-.978c-4.4-.166-8.383-.247-12.169-.247-2.891,0-5.651.046-8.438.14-1.457.049-2.645.065-3.9.081-1,.013-2.032.027-3.27.058-.118,0-.236,0-.352,0a32.321,32.321,0,0,1-3.447-.247h-.005l-.09-.01a34.558,34.558,0,0,0-3.729-.257c-.408,0-.809.013-1.191.039-2.967.2-7.319.463-10.853.463-1.505,0-3.006-.073-4.457-.144h-.012c-1.424-.07-2.9-.141-4.343-.141-.418,0-.812.006-1.2.018-3.371.107-6.731.32-9.981.527h-.013c-2.491.158-5.067.321-7.624.435-2.891.128-5.1.185-7.154.185-1.25,0-2.4-.021-3.507-.065-1.975-.078-3.966-.258-5.891-.431-2.563-.231-5.21-.469-7.824-.469-.347,0-.684,0-1,.012-3.1.075-7.18.161-11.22.161-5.887,0-10.919-.174-15.833-.549-.591-.045-1.173-.067-1.779-.067a41.507,41.507,0,0,0-4.528.314l-.021,0h-.005a41.726,41.726,0,0,1-4.571.316,23.487,23.487,0,0,1-2.817-.167,133.866,133.866,0,0,0-14.818-.533h-.145c-.971,0-1.888,0-2.794,0h-.077l-.451,0h-.064c-.373,0-.758,0-1.155,0a19.819,19.819,0,0,0-4.921.392,5.569,5.569,0,0,1-1.719.383,2.149,2.149,0,0,1-1.066-.306,5.474,5.474,0,0,0-.69-.3,11.377,11.377,0,0,0-3.285-.532,4.431,4.431,0,0,0-.72.05,34.737,34.737,0,0,1-5.956.443c-1.152,0-2.319-.034-3.448-.068h-.077c-1.133-.033-2.3-.067-3.5-.067-.243,0-.482,0-.711,0-2.666.033-5.286.126-7.82.215h-.033c-3.211.114-6.244.221-9.4.221-2.072,0-3.969-.047-5.8-.144-4.156-.221-8.694-.329-13.873-.329-.632,0-1.266,0-1.885,0-7.824.04-15.752.139-23.418.234h-.031l-5.546.068c-1.7.02-3.458.03-5.01.039h-.006c-3.927.023-7.987.047-12.033.206a45.878,45.878,0,0,0-5.513.661l-.036.006c-.842.136-1.713.276-2.576.391-2.09-1.677-6.011-1.818-9.523-1.818-.616,0-1.25.005-1.759.01s-1.153.009-1.755.009h-.287c-2.045-.007-4.044-.01-5.94-.01-13.014,0-25.094.155-36.929.475-.529.014-1.084.021-1.649.021-1.934,0-3.787-.083-5.578-.164h-.008c-1.788-.08-3.638-.163-5.528-.163-.768,0-1.484.013-2.191.04-2.6.1-5.222.326-7.753.547h-.006c-2.554.224-5.195.455-7.871.557-.355.014-.736.02-1.131.02-1.8,0-3.676-.141-5.494-.278l-.051,0c-.957-.072-1.947-.146-2.886-.2a3.327,3.327,0,0,0-.539.791,2.644,2.644,0,0,1-.714.936A1.69,1.69,0,0,1-1215.618,1052.247ZM32.19,1052H32a.54.54,0,0,1-.449-.5.186.186,0,0,1,.168-.219c.954-.116,3.793-.3,4.89-.3h.1a.566.566,0,0,1,.466.54c.008.151-.062.247-.192.262C36.077,1051.894,33.294,1052,32.19,1052Zm-12.042-.168h0c-1.115-.207-2.293-.432-3.431-.649l-.079-.015-.154-.03-1.274-.243c1.2-.225,2.549-.481,4.011-.764a97.446,97.446,0,0,0-13.9-.914c-3.526,0-7.383.144-12.138.452-2.932.192-6.076.368-9.2.368a72.893,72.893,0,0,1-9.337-.582,27.193,27.193,0,0,0-3.39-.224,17.578,17.578,0,0,0-2.539.169,45.064,45.064,0,0,1-6.864.377,31.481,31.481,0,0,0-9.412,1.025,19.742,19.742,0,0,1-3.866.278,19.136,19.136,0,0,1-5.48-.638c-.151-.054-.32-.118-.5-.186l-.038-.014a10.757,10.757,0,0,0-3.552-.894,2.4,2.4,0,0,0-2.242,1.169,29.633,29.633,0,0,0-5.505-.455c-1.337,0-2.685.059-3.989.116h-.032c-1.319.058-2.682.118-4.066.118-1.252,0-2.381-.05-3.45-.152a19.707,19.707,0,0,1-5.111-1.349l0,0c-.848-.312-1.724-.635-2.633-.878,3.269-.057,6.51-.125,9.645-.19l.1,0c6.639-.138,12.91-.268,19.72-.321,7.51-.059,15.276-.714,22.785-1.347,2.6-.219,5.292-.446,7.921-.643-.72.381-1.466.771-2.191,1.15l-.118.062-.2.106-1.417.743.3,0c10.521,0,21.2-.061,31.523-.12H.131c10.483-.06,21.324-.122,32.016-.122,20.15,0,36.5.23,51.45.725-3.07.07-6.214.138-9.254.2l-.584.012h-.037c-8.011.171-16.3.348-24.337.6-1.66.052-3.371.109-5.025.165h-.011c-5.73.193-11.655.392-17.169.431-3.039.022-3.749.582-4.572,1.231A5.79,5.79,0,0,1,20.149,1051.834Zm30.379-.305h0c-.965-.835-1.315-1.294-1.206-1.587.154-.413,1.305-.5,3.112-.5.559,0,1.22.007,2.08.023-.831.432-1.681.871-2.5,1.295l-1.482.765Zm73.974-3.291h0a260.969,260.969,0,0,1-28.133-1.392c20.222-.041,43.142-.085,65.967-.2C142.494,1048.057,131.694,1048.238,124.5,1048.238Zm-1732.105-.149h0c-.087-.154-.179-.311-.273-.47l-.008-.013c-.122-.208-.249-.424-.365-.637l13.839-.195,1.069-.015,1.84-.026c.019.088.037.176.056.263.037.179.075.36.117.538l-.063,0C-1597.147,1047.729-1602.339,1047.905-1607.6,1048.089Zm36.6-.223a27.688,27.688,0,0,1-3.81-.367c2.187-.236,4.406-.48,6.551-.716l.038,0,1.465-.161A7.014,7.014,0,0,1-1571.006,1047.865Zm-92.357-.467h-.007c-4.177-.067-9.051-.153-13.529-.278-.159,0-.176-.087-.192-.167-.013-.064-.026-.13-.115-.15l2.967.056.152,0h.069c3.575.067,7.272.137,10.68.227.13,0,.187.077.186.147S-1663.226,1047.4-1663.363,1047.4Zm401.836-5.2v0c1.435-.17,2.782-.35,4.085-.524h.01a73.915,73.915,0,0,1,9.98-.891,38.032,38.032,0,0,1,7.987.856l-9.135.233-.171,0Zm-15.5-.043c-3.712,0-7.5-.335-11.519-.689h-.006l-.411-.036,1.344-.011c6.242-.052,13.318-.111,20.131-.17A46.412,46.412,0,0,1-1277.027,1042.154Zm1258.35-.175h0c-5.535-.052-11.492-.1-18.21-.159-.029-.069-.062-.138-.094-.206l-.007-.016c-.035-.073-.071-.151-.1-.226,7.42.06,13.1.109,18.41.159,0,.076,0,.151,0,.224s0,.147,0,.221Zm-1201.464-.149c-4.625-.011-8.263-.051-11.121-.121a.2.2,0,0,1-.152-.05.228.228,0,0,1-.025-.176c.009-.088.018-.18-.091-.206,1.187.013,2.444.024,3.659.034h.077c2.6.022,5.29.044,7.679.1.173,0,.25.1.249.2A.243.243,0,0,1-1220.141,1041.83Zm1216.277-.04h0a.566.566,0,0,1-.47-.47.139.139,0,0,1,.129-.163c.795-.114,3.351-.29,4.242-.305H.04a.361.361,0,0,1,.317.355c.01.133-.049.222-.158.238C-.6,1041.565-3.038,1041.781-3.864,1041.791Zm-104.955-.242-3.163-.218c-2-.137-4.121-.284-6.191-.429a8.961,8.961,0,0,1,4.248-1.468c1.5,0,2.765.741,4.86,1.969l.247.144Zm7.012-.03c-.278,0-.849-.245-.872-.375,0-.023.01-.04.041-.051.763-.284,2.774-.822,3.628-1.038a.262.262,0,0,1,.064-.007c.2,0,.581.155.6.24,0,.015-.007.027-.029.036-.863.341-2.535.964-3.347,1.186A.317.317,0,0,1-101.807,1041.519Zm-926.208-.01h0v-.893q4.3.137,8.6.277l5.932.192c-3.13.09-6.284.183-9.334.272l-.281.008Zm846.624-.085v0a15.782,15.782,0,0,1,5.223-.943,37.622,37.622,0,0,1,4.127.31l-2.839.193-.325.022Q-178.3,1041.213-181.392,1041.424Zm-417.3-.118c-4.051,0-9.071-.042-13.1-.109-.178,0-.258-.112-.257-.212s.094-.216.27-.216c3.979,0,9,.041,13.1.107.178,0,.258.111.257.212A.239.239,0,0,1-598.687,1041.306Zm664.527-.052h0l-11.367-.15-7.226-.1c.013-.164.02-.327.02-.486,5.5.074,11.311.151,18.294.243l.059.1c.08.137.152.261.221.386Zm-1113.389-.122h0l-7.856-.069c-5.141-.045-10.969-.1-16.628-.147.044-.052.085-.1.131-.161l.008-.01c.063-.078.128-.16.2-.238l9.4.083c4.758.042,9.817.087,14.769.128,0,.045-.005.091-.008.137-.005.092-.011.185-.011.276Zm251.239-.048h0c.085-.22.176-.441.265-.656l.034-.082,13.464.093,1.446.01h.16c11.505.079,23.4.161,35.074.258a.054.054,0,0,1,.044.015c.01.013,0,.033,0,.051a.066.066,0,0,0,0,.05.039.039,0,0,0,.028.015c-11.226.053-22.634.109-33.667.163h-.011Zm655.012-.052c-2.637,0-5.3-.221-8.384-.478h-.011l-.955-.079c2.449-.028,4.934-.054,7.432-.081l9.642-.1A39.078,39.078,0,0,1-141.3,1041.033Zm222.785,0h0a50.419,50.419,0,0,1-9.916-.911c4.948.092,9.982.18,14.849.266l.2,0,6.667.118c-1.162.06-2.287.125-3.376.189l-.06,0h-.008C86.935,1040.87,84.195,1041.031,81.487,1041.031Zm-700.674-.012c-2.026,0-4.611-.022-6.585-.057-.106,0-.154-.067-.153-.127s.048-.124.153-.124h.314c1.938,0,4.476.022,6.623.057.106,0,.154.066.153.126s-.05.125-.159.125h-.346Zm763.258-.055h0l-5.549-.095-.823-.014h-.059c-5.111-.086-10.4-.175-15.606-.284a.884.884,0,0,0,.461-.221.832.832,0,0,1,.563-.225h.011c4.026.033,8.175.112,12.188.188h.007c2.748.052,5.863.112,8.834.151,0,.1-.006.2-.013.295v.012c0,.068-.009.13-.011.194Zm-777.45-.062c-9.874-.072-19.894-.156-29.584-.236l-.809-.007c-7.578-.063-15.414-.128-23.143-.188a1.6,1.6,0,0,1-.005-.193.979.979,0,0,0-.033-.323c10.31.128,19.315.175,29.741.229.884,0,1.826.025,2.657.043,1.015.022,2.064.044,3.088.044,2.815,0,6.039-.151,8.606-1.269h.957c.064.191.114.384.163.571l0,.013c.055.213.113.434.19.651,1.1.025,2.256.027,3.377.029,1.594,0,3.242.006,4.71.073.083,0,.134.023.154.058.031.056-.018.145-.065.231s-.092.167-.069.223a.1.1,0,0,0,.065.051Zm867.552,0c-4.394,0-9.683-.021-14.893-.06a.259.259,0,0,1-.273-.2c0-.059.052-.094.139-.094H220.8c5.315,0,10.576.033,14.054.061.138,0,.22.087.22.171,0,.056-.043.122-.163.122Zm-944.165-.359h-.272c-.1,0-.16-.046-.161-.126a.5.5,0,0,1,.455-.4c.368-.01.828-.014,1.367-.014,1.542,0,3.346.036,4.05.052a.208.208,0,0,1,.213.2.143.143,0,0,1-.156.144C-705.9,1040.447-708.489,1040.538-709.991,1040.538Z" transform="translate(1684.779 -1039)" fill="#ffe05f"/>
</svg>
